<svg width="512" height="512" viewBox="0 0 512 512" fill="none" xmlns="http://www.w3.org/2000/svg">
<g clip-path="url(#clip0_238_691)">
<path d="M504.582 401.89C504.582 409.441 498.439 415.581 490.89 415.581H21.1073C13.5578 415.581 7.41595 409.441 7.41595 401.89V382.976H205.893V390.288C205.893 397.131 211.459 402.697 218.301 402.697H293.698C300.54 402.697 306.104 397.131 306.104 390.288V382.976H504.582V401.89ZM298.69 382.976V390.288C298.69 393.04 296.449 395.281 293.698 395.281H218.301C215.548 395.281 213.309 393.04 213.309 390.288V382.976H298.69ZM58.4544 110.113C58.4544 102.563 64.5959 96.4189 72.1457 96.4189H439.854C447.403 96.4189 453.546 102.563 453.546 110.113V375.557H58.4544V110.113ZM508.289 375.557H460.96V110.113C460.96 98.4716 451.49 89 439.854 89H72.1457C60.5071 89 51.0381 98.4716 51.0381 110.113V375.557H3.70779C1.66002 375.557 0 377.219 0 379.264V401.89C0 413.528 9.46868 423 21.1073 423H490.89C502.53 423 512 413.528 512 401.89V379.264C512 377.219 510.338 375.557 508.289 375.557Z" fill="white"/>
<path d="M87.0928 140C85.1535 140 83.2141 139.629 81.2747 138.888C79.3765 138.106 77.6435 137.014 76.0754 135.614C74.5074 134.214 73.2695 132.546 72.3617 130.61C71.4539 128.633 71 126.45 71 124.062C71 121.838 71.4126 119.779 72.2379 117.884C73.0632 115.949 74.2186 114.239 75.7041 112.757C77.1896 111.274 78.8814 110.121 80.7795 109.297C82.7189 108.432 84.7821 108 86.9691 108C89.94 108 92.6222 108.721 95.0155 110.162C97.45 111.562 99.3894 113.477 100.834 115.907C102.278 118.337 103 121.035 103 124C103 126.512 102.525 128.757 101.576 130.734C100.669 132.669 99.4307 134.337 97.8627 135.737C96.3359 137.138 94.6235 138.208 92.7253 138.95C90.8685 139.65 88.991 140 87.0928 140ZM86.9691 130.672C87.9594 130.672 88.9703 130.425 90.0019 129.931C91.0335 129.436 91.9001 128.695 92.6015 127.707C93.303 126.718 93.6538 125.462 93.6538 123.938C93.6538 122.62 93.3649 121.467 92.7872 120.479C92.2095 119.49 91.4049 118.728 90.3733 118.193C89.383 117.616 88.2276 117.328 86.9072 117.328C85.6692 117.328 84.5551 117.616 83.5648 118.193C82.6157 118.77 81.8317 119.573 81.2128 120.602C80.6351 121.591 80.3462 122.723 80.3462 124C80.3462 125.483 80.6763 126.739 81.3366 127.768C82.038 128.757 82.9046 129.498 83.9362 129.992C84.9678 130.445 85.9787 130.672 86.9691 130.672Z" fill="#00CFF5"/>
<path d="M123.093 140C121.153 140 119.214 139.629 117.275 138.888C115.377 138.106 113.643 137.014 112.075 135.614C110.507 134.214 109.27 132.546 108.362 130.61C107.454 128.633 107 126.45 107 124.062C107 121.838 107.413 119.779 108.238 117.884C109.063 115.949 110.219 114.239 111.704 112.757C113.19 111.274 114.881 110.121 116.779 109.297C118.719 108.432 120.782 108 122.969 108C125.94 108 128.622 108.721 131.015 110.162C133.45 111.562 135.389 113.477 136.834 115.907C138.278 118.337 139 121.035 139 124C139 126.512 138.525 128.757 137.576 130.734C136.669 132.669 135.431 134.337 133.863 135.737C132.336 137.138 130.623 138.208 128.725 138.95C126.868 139.65 124.991 140 123.093 140ZM122.969 130.672C123.959 130.672 124.97 130.425 126.002 129.931C127.034 129.436 127.9 128.695 128.602 127.707C129.303 126.718 129.654 125.462 129.654 123.938C129.654 122.62 129.365 121.467 128.787 120.479C128.21 119.49 127.405 118.728 126.373 118.193C125.383 117.616 124.228 117.328 122.907 117.328C121.669 117.328 120.555 117.616 119.565 118.193C118.616 118.77 117.832 119.573 117.213 120.602C116.635 121.591 116.346 122.723 116.346 124C116.346 125.483 116.676 126.739 117.337 127.768C118.038 128.757 118.905 129.498 119.936 129.992C120.968 130.445 121.979 130.672 122.969 130.672Z" fill="#FFDE00"/>
<path d="M157.093 140C155.153 140 153.214 139.629 151.275 138.888C149.377 138.106 147.643 137.014 146.075 135.614C144.507 134.214 143.27 132.546 142.362 130.61C141.454 128.633 141 126.45 141 124.062C141 121.838 141.413 119.779 142.238 117.884C143.063 115.949 144.219 114.239 145.704 112.757C147.19 111.274 148.881 110.121 150.779 109.297C152.719 108.432 154.782 108 156.969 108C159.94 108 162.622 108.721 165.015 110.162C167.45 111.562 169.389 113.477 170.834 115.907C172.278 118.337 173 121.035 173 124C173 126.512 172.525 128.757 171.576 130.734C170.669 132.669 169.431 134.337 167.863 135.737C166.336 137.138 164.623 138.208 162.725 138.95C160.868 139.65 158.991 140 157.093 140ZM156.969 130.672C157.959 130.672 158.97 130.425 160.002 129.931C161.034 129.436 161.9 128.695 162.602 127.707C163.303 126.718 163.654 125.462 163.654 123.938C163.654 122.62 163.365 121.467 162.787 120.479C162.21 119.49 161.405 118.728 160.373 118.193C159.383 117.616 158.228 117.328 156.907 117.328C155.669 117.328 154.555 117.616 153.565 118.193C152.616 118.77 151.832 119.573 151.213 120.602C150.635 121.591 150.346 122.723 150.346 124C150.346 125.483 150.676 126.739 151.337 127.768C152.038 128.757 152.905 129.498 153.936 129.992C154.968 130.445 155.979 130.672 156.969 130.672Z" fill="#FF00A8"/>
<path d="M425.093 140C423.153 140 421.214 139.629 419.275 138.888C417.377 138.106 415.643 137.014 414.075 135.614C412.507 134.214 411.27 132.546 410.362 130.61C409.454 128.633 409 126.45 409 124.062C409 121.838 409.413 119.779 410.238 117.884C411.063 115.949 412.219 114.239 413.704 112.757C415.19 111.274 416.881 110.121 418.779 109.297C420.719 108.432 422.782 108 424.969 108C427.94 108 430.622 108.721 433.015 110.162C435.45 111.562 437.389 113.477 438.834 115.907C440.278 118.337 441 121.035 441 124C441 126.512 440.525 128.757 439.576 130.734C438.669 132.669 437.431 134.337 435.863 135.737C434.336 137.138 432.623 138.208 430.725 138.95C428.868 139.65 426.991 140 425.093 140ZM424.969 130.672C425.959 130.672 426.97 130.425 428.002 129.931C429.034 129.436 429.9 128.695 430.602 127.707C431.303 126.718 431.654 125.462 431.654 123.938C431.654 122.62 431.365 121.467 430.787 120.479C430.21 119.49 429.405 118.728 428.373 118.193C427.383 117.616 426.228 117.328 424.907 117.328C423.669 117.328 422.555 117.616 421.565 118.193C420.616 118.77 419.832 119.573 419.213 120.602C418.635 121.591 418.346 122.723 418.346 124C418.346 125.483 418.676 126.739 419.337 127.768C420.038 128.757 420.905 129.498 421.936 129.992C422.968 130.445 423.979 130.672 424.969 130.672Z" fill="#8A38F5"/>
<path d="M79 159H343C346.314 159 349 161.686 349 165V206C349 209.314 346.314 212 343 212H79C75.6863 212 73 209.314 73 206V165C73 161.686 75.6863 159 79 159Z" stroke="#364153" stroke-width="4"/>
<path d="M79 232H147C150.314 232 153 234.686 153 238V279C153 282.314 150.314 285 147 285H79C75.6863 285 73 282.314 73 279V238C73 234.686 75.6863 232 79 232Z" stroke="#364153" stroke-width="4"/>
<path d="M177 232H245C248.314 232 251 234.686 251 238V279C251 282.314 248.314 285 245 285H177C173.686 285 171 282.314 171 279V238C171 234.686 173.686 232 177 232Z" stroke="#364153" stroke-width="4"/>
<path d="M275 232H343C346.314 232 349 234.686 349 238V279C349 282.314 346.314 285 343 285H275C271.686 285 269 282.314 269 279V238C269 234.686 271.686 232 275 232Z" stroke="#364153" stroke-width="4"/>
<path d="M362 165C362 160.582 365.582 157 370 157H433C437.418 157 441 160.582 441 165V167C441 171.418 437.418 175 433 175H370C365.582 175 362 171.418 362 167V165Z" fill="#00CFF5"/>
<path d="M370 181H433C436.314 181 439 183.686 439 187V206C439 209.314 436.314 212 433 212H370C366.686 212 364 209.314 364 206V187C364 183.686 366.686 181 370 181Z" stroke="#364153" stroke-width="4"/>
<path d="M370 221H433C436.314 221 439 223.686 439 227V246C439 249.314 436.314 252 433 252H370C366.686 252 364 249.314 364 246V227C364 223.686 366.686 221 370 221Z" stroke="#364153" stroke-width="4"/>
<path d="M370 261H433C436.314 261 439 263.686 439 267V352C439 355.314 436.314 358 433 358H370C366.686 358 364 355.314 364 352V267C364 263.686 366.686 261 370 261Z" stroke="#364153" stroke-width="4"/>
<path d="M79 305H147C150.314 305 153 307.686 153 311V352C153 355.314 150.314 358 147 358H79C75.6863 358 73 355.314 73 352V311C73 307.686 75.6863 305 79 305Z" stroke="#364153" stroke-width="4"/>
<path d="M177 305H245C248.314 305 251 307.686 251 311V352C251 355.314 248.314 358 245 358H177C173.686 358 171 355.314 171 352V311C171 307.686 173.686 305 177 305Z" stroke="#364153" stroke-width="4"/>
<path d="M275 305H343C346.314 305 349 307.686 349 311V352C349 355.314 346.314 358 343 358H275C271.686 358 269 355.314 269 352V311C269 307.686 271.686 305 275 305Z" stroke="#364153" stroke-width="4"/>
<path d="M79 171C79 168.791 80.7909 167 83 167H200C202.209 167 204 168.791 204 171V175C204 177.209 202.209 179 200 179H83C80.7909 179 79 177.209 79 175V171Z" fill="#364153"/>
<path d="M330 171C330 168.791 331.791 167 334 167H338C340.209 167 342 168.791 342 171V175C342 177.209 340.209 179 338 179H334C331.791 179 330 177.209 330 175V171Z" fill="#364153"/>
<path d="M79 188.5C79 186.567 80.567 185 82.5 185H338.5C340.433 185 342 186.567 342 188.5C342 190.433 340.433 192 338.5 192H82.5C80.567 192 79 190.433 79 188.5Z" fill="#364153"/>
<path d="M79 201.5C79 199.567 80.567 198 82.5 198H338.5C340.433 198 342 199.567 342 201.5C342 203.433 340.433 205 338.5 205H82.5C80.567 205 79 203.433 79 201.5Z" fill="#364153"/>
</g>
<defs>
<clipPath id="clip0_238_691">
<rect width="512" height="512" fill="white"/>
</clipPath>
</defs>
</svg>
