<svg width="512" height="512" viewBox="0 0 512 512" fill="none" xmlns="http://www.w3.org/2000/svg">
<path d="M256 389C267.044 389 276 380.044 276 369C276 357.956 267.044 349 256 349C244.956 349 236 357.956 236 369C236 380.044 244.956 389 256 389Z" fill="#64748B"/>
<path d="M256 163C267.044 163 276 154.044 276 143C276 131.956 267.044 123 256 123C244.956 123 236 131.956 236 143C236 154.044 244.956 163 256 163Z" fill="#64748B"/>
<path d="M100 196C100 191.582 103.582 188 108 188H379C383.418 188 387 191.582 387 196V206C387 210.418 383.418 214 379 214H108C103.582 214 100 210.418 100 206V196Z" fill="#64748B"/>
<path d="M32 283C32 278.582 35.5817 275 40 275H473C477.418 275 481 278.582 481 283V315C481 319.418 477.418 323 473 323H40C35.5817 323 32 319.418 32 315V283Z" fill="#64748B"/>
<path d="M100 238C100 234.134 103.134 231 107 231H474C477.866 231 481 234.134 481 238C481 241.866 477.866 245 474 245H107C103.134 245 100 241.866 100 238Z" fill="#64748B"/>
<path d="M28 144H484C497.255 144 508 154.745 508 168V341C508 354.255 497.255 365 484 365H28C14.7452 365 4 354.255 4 341V168C4 154.745 14.7452 144 28 144Z" stroke="#E2E8F0" stroke-width="8"/>
<path opacity="0.2" d="M85 209.5H67.5V192L85 209.5Z" fill="#FF00A8"/>
<path d="M90 229.5C90 230.163 89.7366 230.799 89.2678 231.268C88.7989 231.737 88.163 232 87.5 232H80V237H85C85.663 237 86.2989 237.263 86.7678 237.732C87.2366 238.201 87.5 238.837 87.5 239.5C87.5 240.163 87.2366 240.799 86.7678 241.268C86.2989 241.737 85.663 242 85 242H80V247C80 247.663 79.7366 248.299 79.2678 248.768C78.7989 249.237 78.163 249.5 77.5 249.5C76.837 249.5 76.2011 249.237 75.7322 248.768C75.2634 248.299 75 247.663 75 247V229.5C75 228.837 75.2634 228.201 75.7322 227.732C76.2011 227.263 76.837 227 77.5 227H87.5C88.163 227 88.7989 227.263 89.2678 227.732C89.7366 228.201 90 228.837 90 229.5ZM48.75 235.75C48.75 238.071 47.8281 240.296 46.1872 241.937C44.5462 243.578 42.3206 244.5 40 244.5H37.5V247C37.5 247.663 37.2366 248.299 36.7678 248.768C36.2989 249.237 35.663 249.5 35 249.5C34.337 249.5 33.7011 249.237 33.2322 248.768C32.7634 248.299 32.5 247.663 32.5 247V229.5C32.5 228.837 32.7634 228.201 33.2322 227.732C33.7011 227.263 34.337 227 35 227H40C42.3206 227 44.5462 227.922 46.1872 229.563C47.8281 231.204 48.75 233.429 48.75 235.75ZM43.75 235.75C43.75 234.755 43.3549 233.802 42.6517 233.098C41.9484 232.395 40.9946 232 40 232H37.5V239.5H40C40.9946 239.5 41.9484 239.105 42.6517 238.402C43.3549 237.698 43.75 236.745 43.75 235.75ZM71.25 238.25C71.25 241.234 70.0647 244.095 67.9549 246.205C65.8452 248.315 62.9837 249.5 60 249.5H55C54.337 249.5 53.7011 249.237 53.2322 248.768C52.7634 248.299 52.5 247.663 52.5 247V229.5C52.5 228.837 52.7634 228.201 53.2322 227.732C53.7011 227.263 54.337 227 55 227H60C62.9837 227 65.8452 228.185 67.9549 230.295C70.0647 232.405 71.25 235.266 71.25 238.25ZM66.25 238.25C66.25 236.592 65.5915 235.003 64.4194 233.831C63.2473 232.658 61.6576 232 60 232H57.5V244.5H60C61.6576 244.5 63.2473 243.842 64.4194 242.669C65.5915 241.497 66.25 239.908 66.25 238.25ZM32.5 217V194.5C32.5 193.174 33.0268 191.902 33.9645 190.964C34.9021 190.027 36.1739 189.5 37.5 189.5H67.5C67.8284 189.5 68.1536 189.564 68.4571 189.69C68.7606 189.815 69.0364 189.999 69.2688 190.231L86.7688 207.731C87.0008 207.964 87.1849 208.239 87.3103 208.543C87.4358 208.846 87.5003 209.172 87.5 209.5V217C87.5 217.663 87.2366 218.299 86.7678 218.768C86.2989 219.237 85.663 219.5 85 219.5C84.337 219.5 83.7011 219.237 83.2322 218.768C82.7634 218.299 82.5 217.663 82.5 217V212H67.5C66.837 212 66.2011 211.737 65.7322 211.268C65.2634 210.799 65 210.163 65 209.5V194.5H37.5V217C37.5 217.663 37.2366 218.299 36.7678 218.768C36.2989 219.237 35.663 219.5 35 219.5C34.337 219.5 33.7011 219.237 33.2322 218.768C32.7634 218.299 32.5 217.663 32.5 217ZM70 207H78.9656L70 198.034V207Z" fill="#FF00A8"/>
</svg>
