<svg width="512" height="512" viewBox="0 0 512 512" fill="none" xmlns="http://www.w3.org/2000/svg">
<path d="M256 418C267.044 418 276 409.044 276 398C276 386.956 267.044 378 256 378C244.956 378 236 386.956 236 398C236 409.044 244.956 418 256 418Z" fill="#364153"/>
<path d="M256 136C267.044 136 276 127.044 276 116C276 104.956 267.044 96 256 96C244.956 96 236 104.956 236 116C236 127.044 244.956 136 256 136Z" fill="#364153"/>
<path d="M100 169C100 164.582 103.582 161 108 161H379C383.418 161 387 164.582 387 169V179C387 183.418 383.418 187 379 187H108C103.582 187 100 183.418 100 179V169Z" fill="#364153"/>
<path d="M32 256C32 251.582 35.5817 248 40 248H473C477.418 248 481 251.582 481 256V288C481 292.418 477.418 296 473 296H40C35.5817 296 32 292.418 32 288V256Z" fill="#364153"/>
<path d="M100 211C100 207.134 103.134 204 107 204H474C477.866 204 481 207.134 481 211C481 214.866 477.866 218 474 218H107C103.134 218 100 214.866 100 211Z" fill="#364153"/>
<path d="M28 117H484C497.255 117 508 127.745 508 141V370C508 383.255 497.255 394 484 394H28C14.7452 394 4 383.255 4 370V141C4 127.745 14.7452 117 28 117Z" stroke="white" stroke-width="8"/>
<path opacity="0.2" d="M85 182.5H67.5V165L85 182.5Z" fill="white"/>
<path d="M90 202.5C90 203.163 89.7366 203.799 89.2678 204.268C88.7989 204.737 88.163 205 87.5 205H80V210H85C85.663 210 86.2989 210.263 86.7678 210.732C87.2366 211.201 87.5 211.837 87.5 212.5C87.5 213.163 87.2366 213.799 86.7678 214.268C86.2989 214.737 85.663 215 85 215H80V220C80 220.663 79.7366 221.299 79.2678 221.768C78.7989 222.237 78.163 222.5 77.5 222.5C76.837 222.5 76.2011 222.237 75.7322 221.768C75.2634 221.299 75 220.663 75 220V202.5C75 201.837 75.2634 201.201 75.7322 200.732C76.2011 200.263 76.837 200 77.5 200H87.5C88.163 200 88.7989 200.263 89.2678 200.732C89.7366 201.201 90 201.837 90 202.5ZM48.75 208.75C48.75 211.071 47.8281 213.296 46.1872 214.937C44.5462 216.578 42.3206 217.5 40 217.5H37.5V220C37.5 220.663 37.2366 221.299 36.7678 221.768C36.2989 222.237 35.663 222.5 35 222.5C34.337 222.5 33.7011 222.237 33.2322 221.768C32.7634 221.299 32.5 220.663 32.5 220V202.5C32.5 201.837 32.7634 201.201 33.2322 200.732C33.7011 200.263 34.337 200 35 200H40C42.3206 200 44.5462 200.922 46.1872 202.563C47.8281 204.204 48.75 206.429 48.75 208.75ZM43.75 208.75C43.75 207.755 43.3549 206.802 42.6517 206.098C41.9484 205.395 40.9946 205 40 205H37.5V212.5H40C40.9946 212.5 41.9484 212.105 42.6517 211.402C43.3549 210.698 43.75 209.745 43.75 208.75ZM71.25 211.25C71.25 214.234 70.0647 217.095 67.955 219.205C65.8452 221.315 62.9837 222.5 60 222.5H55C54.337 222.5 53.7011 222.237 53.2322 221.768C52.7634 221.299 52.5 220.663 52.5 220V202.5C52.5 201.837 52.7634 201.201 53.2322 200.732C53.7011 200.263 54.337 200 55 200H60C62.9837 200 65.8452 201.185 67.955 203.295C70.0647 205.405 71.25 208.266 71.25 211.25ZM66.25 211.25C66.25 209.592 65.5915 208.003 64.4194 206.831C63.2473 205.658 61.6576 205 60 205H57.5V217.5H60C61.6576 217.5 63.2473 216.842 64.4194 215.669C65.5915 214.497 66.25 212.908 66.25 211.25ZM32.5 190V167.5C32.5 166.174 33.0268 164.902 33.9645 163.964C34.9021 163.027 36.1739 162.5 37.5 162.5H67.5C67.8284 162.5 68.1536 162.564 68.4571 162.69C68.7606 162.815 69.0364 162.999 69.2688 163.231L86.7688 180.731C87.0008 180.964 87.1849 181.239 87.3103 181.543C87.4358 181.846 87.5003 182.172 87.5 182.5V190C87.5 190.663 87.2366 191.299 86.7678 191.768C86.2989 192.237 85.663 192.5 85 192.5C84.337 192.5 83.7011 192.237 83.2322 191.768C82.7634 191.299 82.5 190.663 82.5 190V185H67.5C66.837 185 66.2011 184.737 65.7322 184.268C65.2634 183.799 65 183.163 65 182.5V167.5H37.5V190C37.5 190.663 37.2366 191.299 36.7678 191.768C36.2989 192.237 35.663 192.5 35 192.5C34.337 192.5 33.7011 192.237 33.2322 191.768C32.7634 191.299 32.5 190.663 32.5 190ZM70 180H78.9656L70 171.034V180Z" fill="white"/>
</svg>
