<svg width="512" height="512" viewBox="0 0 512 512" fill="none" xmlns="http://www.w3.org/2000/svg">
<path opacity="0.2" d="M388 77V244.832L333.385 190.217C331.322 188.156 328.526 186.998 325.609 186.998C322.693 186.998 319.896 188.156 317.834 190.217L282.551 225.5L214.283 157.217C213.261 156.195 212.048 155.383 210.712 154.83C209.377 154.276 207.946 153.991 206.5 153.991C205.054 153.991 203.623 154.276 202.288 154.83C200.952 155.383 199.739 156.195 198.717 157.217L124 231.949V77C124 74.0826 125.159 71.2847 127.222 69.2218C129.285 67.1589 132.083 66 135 66H377C379.917 66 382.715 67.1589 384.778 69.2218C386.841 71.2847 388 74.0826 388 77Z" fill="#00CFF5"/>
<path d="M377 55H135C129.165 55 123.569 57.3178 119.444 61.4436C115.318 65.5695 113 71.1652 113 77V275C113 280.835 115.318 286.431 119.444 290.556C123.569 294.682 129.165 297 135 297H377C382.835 297 388.431 294.682 392.556 290.556C396.682 286.431 399 280.835 399 275V77C399 71.1652 396.682 65.5695 392.556 61.4436C388.431 57.3178 382.835 55 377 55ZM377 77V218.281L341.154 182.449C339.111 180.405 336.685 178.784 334.016 177.678C331.346 176.573 328.485 176.003 325.596 176.003C322.706 176.003 319.845 176.573 317.175 177.678C314.506 178.784 312.08 180.405 310.038 182.449L282.538 209.949L222.038 149.449C217.912 145.326 212.319 143.01 206.486 143.01C200.654 143.01 195.06 145.326 190.935 149.449L135 205.384V77H377ZM135 236.5L206.5 165L316.5 275H135V236.5ZM377 275H347.616L298.116 225.5L325.616 198L377 249.398V275ZM278 137.5C278 134.237 278.968 131.047 280.781 128.333C282.594 125.62 285.171 123.505 288.186 122.256C291.201 121.007 294.518 120.68 297.719 121.317C300.92 121.954 303.86 123.525 306.167 125.833C308.475 128.14 310.046 131.08 310.683 134.281C311.32 137.482 310.993 140.799 309.744 143.814C308.495 146.829 306.38 149.406 303.667 151.219C300.953 153.032 297.763 154 294.5 154C290.124 154 285.927 152.262 282.833 149.167C279.738 146.073 278 141.876 278 137.5Z" fill="#64748B"/>
<path d="M256 512C267.044 512 276 503.044 276 492C276 480.956 267.044 472 256 472C244.956 472 236 480.956 236 492C236 503.044 244.956 512 256 512Z" fill="#64748B"/>
<path d="M256 40C267.044 40 276 31.0437 276 20C276 8.95627 267.044 0 256 0C244.956 0 236 8.95627 236 20C236 31.0437 244.956 40 256 40Z" fill="#64748B"/>
<path d="M113 329C113 324.582 116.582 321 121 321H366C370.418 321 374 324.582 374 329V339C374 343.418 370.418 347 366 347H121C116.582 347 113 343.418 113 339V329Z" fill="#64748B"/>
<path d="M113 371C113 367.134 116.134 364 120 364H392C395.866 364 399 367.134 399 371C399 374.866 395.866 378 392 378H120C116.134 378 113 374.866 113 371Z" fill="#64748B"/>
<path d="M103 20H409C422.255 20 433 30.7452 433 44V466C433 479.255 422.255 490 409 490H103C89.7452 490 79 479.255 79 466V44L79.0078 43.3809C79.3362 30.4122 89.9522 20 103 20Z" stroke="#E2E8F0" stroke-width="8"/>
</svg>
