<svg width="48" height="48" viewBox="0 0 48 48" fill="none" xmlns="http://www.w3.org/2000/svg">
<g clip-path="url(#clip0_324_77)">
<rect x="20" y="14" width="8" height="4" rx="2" fill="#4F4F4F"/>
<rect x="48" y="27" width="8" height="4" rx="2" transform="rotate(90 48 27)" fill="#4F4F4F"/>
<rect x="4" y="27" width="8" height="4" rx="2" transform="rotate(90 4 27)" fill="#4F4F4F"/>
<rect x="2" y="16" width="44" height="30" rx="10" fill="#4F4F4F"/>
<rect x="5" y="19" width="38" height="24" rx="8" fill="black"/>
<rect x="22" y="11" width="4" height="5" fill="#4F4F4F"/>
<path d="M24.029 12C23.423 12 22.8169 11.8842 22.2108 11.6525C21.6177 11.408 21.0761 11.0669 20.5861 10.6293C20.0961 10.1918 19.7092 9.67053 19.4255 9.06564C19.1418 8.44788 19 7.76577 19 7.01931C19 6.32433 19.1289 5.68082 19.3868 5.0888C19.6447 4.48391 20.0058 3.94981 20.47 3.48649C20.9342 3.02317 21.4629 2.66281 22.0561 2.40541C22.6622 2.13514 23.3069 2 23.9903 2C24.9188 2 25.7569 2.22523 26.5048 2.67568C27.2656 3.11326 27.8717 3.71171 28.323 4.47104C28.7743 5.23037 29 6.07336 29 7C29 7.78507 28.8517 8.48649 28.5551 9.10425C28.2714 9.70914 27.8846 10.2304 27.3946 10.668C26.9175 11.1055 26.3823 11.4402 25.7892 11.6718C25.2089 11.8906 24.6222 12 24.029 12ZM23.9903 9.08494C24.2998 9.08494 24.6157 9.00772 24.9381 8.85328C25.2605 8.69884 25.5313 8.46718 25.7505 8.1583C25.9697 7.84942 26.0793 7.45689 26.0793 6.9807C26.0793 6.56886 25.989 6.20849 25.8085 5.89961C25.628 5.59073 25.3765 5.35264 25.0542 5.18533C24.7447 5.00515 24.3836 4.91506 23.971 4.91506C23.5841 4.91506 23.236 5.00515 22.9265 5.18533C22.6299 5.36551 22.3849 5.61647 22.1915 5.93822C22.011 6.24711 21.9207 6.60103 21.9207 7C21.9207 7.46332 22.0239 7.85586 22.2302 8.17761C22.4494 8.48649 22.7202 8.71815 23.0426 8.87259C23.3649 9.01416 23.6809 9.08494 23.9903 9.08494Z" fill="#FFDE00"/>
<path d="M16.029 36C15.423 36 14.8169 35.8842 14.2108 35.6525C13.6177 35.408 13.0761 35.0669 12.5861 34.6293C12.0961 34.1918 11.7092 33.6705 11.4255 33.0656C11.1418 32.4479 11 31.7658 11 31.0193C11 30.3243 11.1289 29.6808 11.3868 29.0888C11.6447 28.4839 12.0058 27.9498 12.47 27.4865C12.9342 27.0232 13.4629 26.6628 14.0561 26.4054C14.6622 26.1351 15.3069 26 15.9903 26C16.9188 26 17.7569 26.2252 18.5048 26.6757C19.2656 27.1133 19.8717 27.7117 20.323 28.471C20.7743 29.2304 21 30.0734 21 31C21 31.7851 20.8517 32.4865 20.5551 33.1042C20.2714 33.7091 19.8846 34.2304 19.3946 34.668C18.9175 35.1055 18.3823 35.4402 17.7892 35.6718C17.2089 35.8906 16.6222 36 16.029 36ZM15.9903 33.0849C16.2998 33.0849 16.6157 33.0077 16.9381 32.8533C17.2605 32.6988 17.5313 32.4672 17.7505 32.1583C17.9697 31.8494 18.0793 31.4569 18.0793 30.9807C18.0793 30.5689 17.989 30.2085 17.8085 29.8996C17.628 29.5907 17.3765 29.3526 17.0542 29.1853C16.7447 29.0051 16.3836 28.9151 15.971 28.9151C15.5841 28.9151 15.236 29.0051 14.9265 29.1853C14.6299 29.3655 14.3849 29.6165 14.1915 29.9382C14.011 30.2471 13.9207 30.601 13.9207 31C13.9207 31.4633 14.0239 31.8559 14.2302 32.1776C14.4494 32.4865 14.7202 32.7181 15.0426 32.8726C15.3649 33.0142 15.6809 33.0849 15.9903 33.0849Z" fill="#00CFF5"/>
<path d="M32.029 36C31.423 36 30.8169 35.8842 30.2108 35.6525C29.6177 35.408 29.0761 35.0669 28.5861 34.6293C28.0961 34.1918 27.7092 33.6705 27.4255 33.0656C27.1418 32.4479 27 31.7658 27 31.0193C27 30.3243 27.1289 29.6808 27.3868 29.0888C27.6447 28.4839 28.0058 27.9498 28.47 27.4865C28.9342 27.0232 29.4629 26.6628 30.0561 26.4054C30.6622 26.1351 31.3069 26 31.9903 26C32.9188 26 33.7569 26.2252 34.5048 26.6757C35.2656 27.1133 35.8717 27.7117 36.323 28.471C36.7743 29.2304 37 30.0734 37 31C37 31.7851 36.8517 32.4865 36.5551 33.1042C36.2714 33.7091 35.8846 34.2304 35.3946 34.668C34.9175 35.1055 34.3823 35.4402 33.7892 35.6718C33.2089 35.8906 32.6222 36 32.029 36ZM31.9903 33.0849C32.2998 33.0849 32.6157 33.0077 32.9381 32.8533C33.2605 32.6988 33.5313 32.4672 33.7505 32.1583C33.9697 31.8494 34.0793 31.4569 34.0793 30.9807C34.0793 30.5689 33.989 30.2085 33.8085 29.8996C33.628 29.5907 33.3765 29.3526 33.0542 29.1853C32.7447 29.0051 32.3836 28.9151 31.971 28.9151C31.5841 28.9151 31.236 29.0051 30.9265 29.1853C30.6299 29.3655 30.3849 29.6165 30.1915 29.9382C30.011 30.2471 29.9207 30.601 29.9207 31C29.9207 31.4633 30.0239 31.8559 30.2302 32.1776C30.4494 32.4865 30.7202 32.7181 31.0426 32.8726C31.3649 33.0142 31.6809 33.0849 31.9903 33.0849Z" fill="#FF00A8"/>
</g>
<defs>
<clipPath id="clip0_324_77">
<rect width="48" height="48" fill="white"/>
</clipPath>
</defs>
</svg>
