<svg width="306" height="581" viewBox="0 0 306 581" fill="none" xmlns="http://www.w3.org/2000/svg">
<rect x="139.996" y="255.277" width="46" height="23" transform="rotate(-5.54682 139.996 255.277)" fill="#393737"/>
<path d="M160 259.5L154 266V272L141.886 274.735L139.996 255.277L164.896 252.858L180.5 252.5L160 259.5Z" fill="#1D1D1D"/>
<rect x="130.406" y="247.379" width="63" height="13" rx="4" transform="rotate(-7.87841 130.406 247.379)" fill="#393737"/>
<path d="M126.44 81.1789C125.63 75.2542 129.267 69.8645 134.563 69.1407L153.742 66.5198C159.038 65.7961 163.987 70.0123 164.797 75.9371V75.9371C165.607 81.8619 161.97 87.2516 156.674 87.9753L137.495 90.5962C132.199 91.32 127.25 87.1037 126.44 81.1789V81.1789Z" fill="#4F4F4F"/>
<path d="M132.364 53.0498L151.543 50.4289L155.208 77.2483L136.029 79.8692L132.364 53.0498Z" fill="#4F4F4F"/>
<path d="M142.434 54.1581C139.36 54.5781 136.207 54.4108 132.973 53.656C129.795 52.827 126.812 51.4727 124.024 49.5932C121.236 47.7137 118.913 45.3385 117.055 42.4675C115.188 39.5313 113.996 36.1704 113.479 32.3849C112.997 28.8605 113.205 25.5078 114.102 22.3267C114.991 19.0804 116.452 16.1216 118.485 13.4503C120.518 10.7789 122.95 8.58505 125.779 6.86862C128.665 5.07798 131.841 3.94584 135.307 3.4722C140.016 2.82876 144.422 3.39006 148.527 5.1561C152.689 6.84793 156.177 9.46284 158.992 13.0008C161.807 16.5388 163.536 20.6574 164.178 25.3567C164.722 29.338 164.456 32.9978 163.38 36.3362C162.361 39.6004 160.76 42.5118 158.578 45.0705C156.462 47.6202 153.98 49.6881 151.133 51.274C148.342 52.7857 145.442 53.747 142.434 54.1581ZM140.217 39.4019C141.787 39.1874 143.336 38.5769 144.863 37.5702C146.391 36.5636 147.604 35.2011 148.501 33.4828C149.399 31.7644 149.683 29.6978 149.353 27.2829C149.067 25.1944 148.36 23.4295 147.23 21.9881C146.101 20.5468 144.661 19.5137 142.91 18.8886C141.216 18.1893 139.322 17.9827 137.229 18.2687C135.268 18.5368 133.564 19.2349 132.12 20.3631C130.741 21.4824 129.672 22.9249 128.914 24.6907C128.213 26.3822 128 28.2396 128.277 30.2629C128.598 32.6125 129.393 34.5317 130.662 36.0204C131.988 37.4349 133.522 38.422 135.264 38.9818C136.997 39.4763 138.648 39.6164 140.217 39.4019Z" fill="#FFDE00"/>
<path d="M76.5 84.5L144 77C144 77 310.874 147.003 273 208C268.817 214.736 266.249 218.539 260.5 224C255.743 228.519 252.855 231.04 247 234C243.634 235.701 238 237.5 238 237.5L95 258C95 258 83.6074 259.297 76.5 258C66.7865 256.228 61.4583 253.344 53.5 247.5C46.9332 242.677 43.1321 239.522 39 232.5C35.8357 227.123 33.5 217.5 33.5 217.5L22.5 153.5C22.5 153.5 20.4734 138.351 22.5 129C25.2959 116.099 29.367 108.525 39 99.5C45.208 93.684 49.532 90.9794 57.5 88C64.5669 85.3575 76.5 84.5 76.5 84.5Z" fill="#606060"/>
<path d="M64.1818 142.422C60.1334 112.798 78.3179 85.8496 104.798 82.2309L219.869 66.5054C246.349 62.8867 271.097 83.9681 275.146 113.592L282.476 167.231C286.524 196.855 268.34 223.803 241.86 227.422L126.789 243.147C100.308 246.766 75.5603 225.685 71.512 196.061L64.1818 142.422Z" fill="#4F4F4F"/>
<path d="M79.2987 145.819C76.06 122.12 90.6076 100.561 111.792 97.6664L217.274 83.2513C238.458 80.3564 258.256 97.2214 261.495 120.921L267.359 163.832C270.598 187.531 256.05 209.089 234.866 211.984L129.384 226.399C108.2 229.294 88.4015 212.429 85.1628 188.73L79.2987 145.819Z" fill="black"/>
<path d="M138.584 185.404C135.51 185.824 132.357 185.657 129.123 184.902C125.945 184.073 122.962 182.719 120.174 180.839C117.386 178.96 115.063 176.585 113.205 173.714C111.338 170.777 110.146 167.417 109.629 163.631C109.147 160.107 109.355 156.754 110.253 153.573C111.141 150.327 112.602 147.368 114.635 144.696C116.668 142.025 119.1 139.831 121.929 138.115C124.816 136.324 127.992 135.192 131.457 134.718C136.166 134.075 140.572 134.636 144.677 136.402C148.839 138.094 152.327 140.709 155.142 144.247C157.957 147.785 159.686 151.904 160.328 156.603C160.872 160.584 160.606 164.244 159.53 167.582C158.511 170.846 156.91 173.758 154.729 176.317C152.612 178.866 150.13 180.934 147.283 182.52C144.492 184.032 141.592 184.993 138.584 185.404ZM136.368 170.648C137.937 170.433 139.486 169.823 141.013 168.816C142.541 167.81 143.754 166.447 144.652 164.729C145.549 163.011 145.833 160.944 145.503 158.529C145.218 156.44 144.51 154.676 143.38 153.234C142.251 151.793 140.811 150.76 139.06 150.135C137.366 149.435 135.472 149.229 133.38 149.515C131.418 149.783 129.715 150.481 128.27 151.609C126.891 152.729 125.822 154.171 125.064 155.937C124.363 157.628 124.15 159.486 124.427 161.509C124.748 163.859 125.543 165.778 126.812 167.266C128.138 168.681 129.672 169.668 131.414 170.228C133.147 170.722 134.798 170.862 136.368 170.648Z" fill="#00CFF5"/>
<path d="M215.298 174.92C212.225 175.34 209.071 175.172 205.837 174.418C202.659 173.589 199.676 172.234 196.888 170.355C194.1 168.475 191.777 166.1 189.919 163.229C188.052 160.293 186.86 156.932 186.343 153.147C185.861 149.622 186.069 146.269 186.967 143.088C187.855 139.842 189.316 136.883 191.349 134.212C193.382 131.541 195.814 129.347 198.643 127.63C201.53 125.84 204.706 124.708 208.172 124.234C212.88 123.59 217.287 124.152 221.392 125.918C225.553 127.61 229.041 130.225 231.856 133.763C234.671 137.301 236.4 141.419 237.042 146.118C237.586 150.1 237.32 153.76 236.244 157.098C235.225 160.362 233.624 163.274 231.443 165.832C229.326 168.382 226.844 170.45 223.997 172.036C221.206 173.547 218.306 174.509 215.298 174.92ZM213.082 160.164C214.651 159.949 216.2 159.339 217.728 158.332C219.255 157.325 220.468 155.963 221.366 154.245C222.263 152.526 222.547 150.46 222.217 148.045C221.932 145.956 221.224 144.191 220.095 142.75C218.965 141.309 217.525 140.275 215.774 139.65C214.08 138.951 212.186 138.744 210.094 139.03C208.132 139.298 206.429 139.997 204.984 141.125C203.605 142.244 202.536 143.687 201.778 145.452C201.077 147.144 200.865 149.001 201.141 151.025C201.462 153.374 202.257 155.293 203.527 156.782C204.852 158.197 206.386 159.184 208.128 159.744C209.861 160.238 211.512 160.378 213.082 160.164Z" fill="#FF00A8"/>
<path d="M34.3821 142.72C47.1938 140.645 60.1178 154.632 63.2483 173.96C66.3787 193.288 58.5297 210.64 45.718 212.715C44.8066 212.862 43.8946 212.925 42.9856 212.914L43.0002 213L29.0002 212L27.9592 205.442C22.5881 199.786 18.4482 191.325 16.8528 181.475C15.2378 171.503 16.5434 162.057 19.9465 154.964L19.0002 149L29.2131 144.506C30.8232 143.625 32.5519 143.016 34.3821 142.72Z" fill="#008198"/>
<ellipse cx="28.3938" cy="179.838" rx="23.5" ry="32.5" transform="rotate(-9.19987 28.3938 179.838)" fill="#00CFF5"/>
<rect x="134" y="271" width="63" height="13" rx="4" fill="#393737"/>
<rect x="110" y="438" width="23" height="99" fill="#1D1D1D"/>
<rect x="218" y="438" width="23" height="99" fill="#1D1D1D"/>
<path d="M154.886 544C158.986 552.685 160.757 560.558 160.93 570.207L161 580.204C155.127 581.493 147.323 580.383 141.186 580.374L93.3524 580.473C89.1465 580.506 80.6261 581.804 77 580.199C97.5205 560.294 126.815 548.583 154.886 544Z" fill="#1D1D1D"/>
<path d="M118.173 522L122.908 522.517L125.524 522.282L130.533 523.354L134.443 524.412C142.149 528.456 148.723 533.488 153.284 541.05L155 543.937C126.929 548.503 97.6345 560.17 77.114 580C75.0515 577.263 76.436 569.039 76.6907 565.545C78.2434 558.402 80.1457 551.79 83.6645 545.329C90.0256 533.653 97.1488 527.384 109.948 523.557L116.98 522.202L118.173 522Z" fill="#393737"/>
<path d="M265.886 544C269.986 552.685 271.757 560.558 271.93 570.207L272 580.204C266.127 581.493 258.323 580.383 252.186 580.374L204.352 580.473C200.147 580.506 191.626 581.804 188 580.199C208.521 560.294 237.815 548.583 265.886 544Z" fill="#1D1D1D"/>
<path d="M86 296C86 286.059 94.0589 278 104 278H181C190.941 278 199 286.059 199 296V401C199 410.941 190.941 419 181 419H104C94.0589 419 86 410.941 86 401V296Z" fill="#606060"/>
<path d="M229.173 522L233.908 522.517L236.524 522.282L241.533 523.354L245.443 524.412C253.149 528.456 259.723 533.488 264.284 541.05L266 543.937C237.929 548.503 208.635 560.17 188.114 580C186.052 577.263 187.436 569.039 187.691 565.545C189.243 558.402 191.146 551.79 194.665 545.329C201.026 533.653 208.149 527.384 220.948 523.557L227.98 522.202L229.173 522Z" fill="#393737"/>
<path d="M119.5 396C130.822 396 140 405.402 140 417C140 417.675 139.968 418.342 139.907 419H104C102.28 419 100.616 418.758 99.04 418.308C99.0141 417.875 99 417.439 99 417C99 405.402 108.178 396 119.5 396Z" fill="#393737"/>
<path d="M113 409H229.486C239.159 409 247 416.841 247 426.514V426.514C247 436.723 238.723 445 228.514 445H113V409Z" fill="#393737"/>
<path d="M109.105 407.005C107.594 408.999 105.5 412.959 105.5 412.959C105.5 412.959 109.757 411.373 111.737 410.974C113.747 410.569 114.983 410.601 117 410.974C118.723 411.293 119.686 411.642 121.211 412.463C123.108 413.484 123.864 414.491 125.421 415.936C127.185 417.573 127.935 418.702 129.632 420.401C131.425 422.197 132.345 423.303 134.368 424.866C135.736 425.923 136.4 426.753 138.053 427.347C139.601 427.903 142.263 427.843 142.263 427.843C142.263 427.843 156.692 428.632 165.947 428.835C176.222 429.062 181.989 429.048 192.263 428.835C201.93 428.636 207.404 428.965 217 427.843C221.963 427.263 225.128 427.907 229.632 425.859L229.727 425.815C231.416 425.047 232.433 424.585 233.842 423.378C235.363 422.075 237 419.409 237 419.409C237 419.409 188.069 422.503 157 419.409C153.501 419.06 151.405 419.424 148.053 418.416C146.124 417.837 144.985 417.511 143.316 416.432C141.638 415.347 141.019 414.362 139.632 412.959C137.443 410.745 136.684 409.102 134.368 407.005C132.47 405.286 131.516 404.032 129.105 403.036C126.815 402.089 125.289 402.12 122.789 402.044C119.681 401.948 117.767 401.91 114.895 403.036C112.313 404.048 110.73 404.861 109.105 407.005Z" fill="black"/>
<ellipse cx="113" cy="427" rx="12" ry="18" fill="#1D1D1D"/>
<ellipse cx="113" cy="427" rx="8" ry="12" fill="#DE0192"/>
<path d="M277.783 418L260.283 319L230.783 323L260.283 423.5L277.783 418Z" fill="#393737"/>
<path d="M272.58 417.531C269.247 417.971 262.017 418.292 259.632 420.506C259.088 422.606 256.768 423.244 255.154 424.68C249.443 429.763 247.687 436.407 247.164 443.753C249.749 443.39 252.609 440.568 254.672 439.008L254.201 438.789C253.978 435.879 256.501 431.197 257.977 428.707C260.944 423.702 270.809 422.059 276.139 420.67C276.915 420.467 277.398 420.271 278.206 420.5C280.121 420.165 284.879 419.936 286.185 418.674L285.904 415.281L272.58 417.531Z" fill="#1E324E"/>
<path d="M247.164 443.753C247.567 447.018 250.755 448.879 253.171 450.916C255.745 446.831 258.409 443.006 263.42 441.807C265.775 441.243 268.211 441.25 270.301 442.628C272.53 444.097 273.506 446.519 273.942 449.057C275.088 455.735 272.322 461.254 269.372 467.001C274.084 468.778 277.848 469.712 282.896 468.76L280.5 459.587C279.514 454.983 279.084 449.952 277.145 445.617C275.597 442.164 272.833 439.16 269.189 437.906C264.565 436.316 259.017 436.885 254.672 439.008C252.609 440.568 249.749 443.39 247.164 443.753Z" fill="#162942"/>
<path d="M278.206 420.499C277.398 420.27 276.915 420.467 276.139 420.669C270.809 422.058 260.944 423.701 257.977 428.707C256.501 431.197 253.978 435.878 254.201 438.789L254.672 439.007C259.017 436.884 264.565 436.315 269.189 437.906C272.833 439.159 275.597 442.163 277.145 445.616C279.084 449.952 279.514 454.983 280.5 459.587L282.896 468.76C284.258 467.766 285.777 467.002 287.112 465.961C290.003 463.707 291.968 460.511 293.652 457.326C294.889 453.044 295.526 449.319 295.115 444.848C294.414 437.218 290.482 429.168 284.332 424.483C282.562 423.136 280.284 422.337 278.655 420.905L278.206 420.499Z" fill="#008198"/>
<path d="M253.783 283C261.313 282.831 267.63 291.166 267.862 301.474C268.094 311.781 263.312 319.83 255.782 320C255.674 320.002 255.566 320.003 255.458 320.002L234 327V285.5L251.549 283.306C252.274 283.122 253.02 283.017 253.783 283Z" fill="#393737"/>
<path d="M234 314.38V327.001L255.46 320.002C255.567 320.003 255.675 320.003 255.782 320.001C261.766 319.866 266.013 314.752 267.388 307.484L234 314.38Z" fill="#1D1D1D"/>
<path d="M56.5 418L74 319L103.5 323L74 423.5L56.5 418Z" fill="#393737"/>
<path d="M114.398 285.041C121.927 285.211 127.824 294.557 127.568 305.917C127.312 317.277 121 326.348 113.47 326.178C112.935 326.166 112.407 326.106 111.89 326.004L111.889 326.054L104.006 324.004L104.104 320.151C101.638 316.356 100.17 311.091 100.3 305.302C100.432 299.442 102.175 294.191 104.866 290.503L104.956 286.999L111.262 285.513C112.273 285.181 113.323 285.017 114.398 285.041Z" fill="#1D1D1D"/>
<ellipse cx="107.056" cy="305.699" rx="13.6372" ry="18.7497" transform="rotate(1.29054 107.056 305.699)" fill="#393737"/>
<path d="M108 287L80.5 283L78 320L106 324.5L108 287Z" fill="#D9D9D9"/>
<path d="M108 287L80.5 283L78 320L106 324.5L108 287Z" fill="#393737"/>
<path d="M118.091 316.497C115.525 321.392 111.32 324.55 106.634 324.444C106.422 324.44 106.213 324.426 106.004 324.408L106 324.5L78 320L78.791 308.291L118.091 316.497Z" fill="#1D1D1D"/>
<path d="M93.6878 302.087C93.4556 312.395 86.0297 320.17 78.5 320C70.9703 319.83 66.1882 311.781 66.4204 301.473C66.6526 291.165 72.9703 282.83 80.5 283C88.0297 283.17 93.9201 291.779 93.6878 302.087Z" fill="#1D1D1D"/>
<path d="M88.6177 301.281C88.4706 307.808 83.7685 312.73 79.0008 312.623C74.233 312.516 71.205 307.419 71.352 300.892C71.4991 294.365 75.4994 289.087 80.2672 289.195C85.0349 289.302 88.7647 294.754 88.6177 301.281Z" fill="#DE0192"/>
<path d="M61.7028 417.532C65.0353 417.972 72.2655 418.293 74.6508 420.507C75.1952 422.607 77.5147 423.245 79.1285 424.681C84.8402 429.764 86.5956 436.408 87.1188 443.754C84.5339 443.391 81.6733 440.569 79.6109 439.009L80.0815 438.79C80.3045 435.88 77.7819 431.198 76.3062 428.708C73.3383 423.703 63.4735 422.06 58.1442 420.671C57.3673 420.468 56.8851 420.272 56.0767 420.501C54.1621 420.166 49.4036 419.937 48.0978 418.675L48.3789 415.282L61.7028 417.532Z" fill="#1E324E"/>
<path d="M87.1187 443.753C86.7159 447.018 83.5272 448.879 81.1115 450.916C78.5377 446.831 75.8734 443.006 70.8627 441.807C68.5074 441.243 66.072 441.25 63.9816 442.628C61.7529 444.097 60.7768 446.519 60.3408 449.057C59.195 455.735 61.9605 461.254 64.9107 467.001C60.199 468.778 56.4348 469.712 51.3866 468.76L53.7823 459.587C54.7684 454.983 55.1985 449.952 57.1379 445.617C58.6857 442.164 61.4494 439.16 65.0932 437.906C69.718 436.316 75.2656 436.885 79.6109 439.008C81.6733 440.568 84.5338 443.39 87.1187 443.753Z" fill="#162942"/>
<path d="M56.0767 420.499C56.885 420.27 57.3673 420.467 58.1442 420.669C63.4735 422.058 73.3383 423.701 76.3061 428.707C77.7819 431.197 80.3045 435.878 80.0815 438.789L79.6109 439.007C75.2656 436.884 69.7181 436.315 65.0933 437.906C61.4494 439.159 58.6857 442.163 57.1379 445.616C55.1985 449.952 54.7685 454.983 53.7823 459.587L51.3866 468.76C50.0243 467.766 48.5054 467.002 47.1704 465.961C44.2795 463.707 42.3143 460.511 40.6307 457.326C39.3941 453.044 38.7568 449.319 39.1673 444.848C39.8688 437.218 43.801 429.168 49.9511 424.483C51.7206 423.136 53.9988 422.337 55.6274 420.905L56.0767 420.499Z" fill="#008198"/>
<path d="M135 296C135 286.059 143.059 278 153 278H230C239.941 278 248 286.059 248 296V401C248 410.941 239.941 419 230 419H153C143.059 419 135 410.941 135 401V296Z" fill="#4F4F4F"/>
<rect x="150" y="296" width="84" height="47" rx="6" fill="#393737"/>
<rect x="153" y="296" width="84" height="47" rx="6" fill="#606060"/>
<rect x="156" y="299" width="78" height="41" rx="5" stroke="#FFDE00" stroke-width="2"/>
</svg>
