<svg width="44" height="44" viewBox="0 0 44 44" fill="none" xmlns="http://www.w3.org/2000/svg">
<path opacity="0.2" d="M38.5 9.625V34.375C38.5 34.7397 38.3551 35.0894 38.0973 35.3473C37.8394 35.6051 37.4897 35.75 37.125 35.75H6.875C6.51033 35.75 6.16059 35.6051 5.90273 35.3473C5.64487 35.0894 5.5 34.7397 5.5 34.375V9.625C5.5 9.26033 5.64487 8.91059 5.90273 8.65273C6.16059 8.39487 6.51033 8.25 6.875 8.25H37.125C37.4897 8.25 37.8394 8.39487 38.0973 8.65273C38.3551 8.91059 38.5 9.26033 38.5 9.625Z" fill="black"/>
<path d="M37.125 6.875C37.8543 6.875 38.5536 7.16494 39.0693 7.68066C39.5851 8.19639 39.875 8.89566 39.875 9.625V34.375C39.875 35.1043 39.5851 35.8036 39.0693 36.3193C38.5536 36.8351 37.8543 37.125 37.125 37.125H6.875C6.14565 37.125 5.44639 36.8351 4.93066 36.3193C4.41494 35.8036 4.125 35.1043 4.125 34.375V9.625C4.125 8.89565 4.41494 8.19639 4.93066 7.68066C5.44639 7.16494 6.14565 6.875 6.875 6.875H37.125ZM6.875 34.375H37.125V9.625H6.875V34.375ZM16 28C16.5523 28 17 28.4477 17 29V31C17 31.5523 16.5523 32 16 32H10C9.44772 32 9 31.5523 9 31V29C9 28.4477 9.44772 28 10 28H16ZM34 28C34.5523 28 35 28.4477 35 29V31C35 31.5523 34.5523 32 34 32H28C27.4477 32 27 31.5523 27 31V29C27 28.4477 27.4477 28 28 28H34ZM25 20C25.5523 20 26 20.4477 26 21V23C26 23.5523 25.5523 24 25 24H19C18.4477 24 18 23.5523 18 23V21C18 20.4477 18.4477 20 19 20H25ZM31 11C31.5523 11 32 11.4477 32 12C32 12.5523 31.5523 13 31 13C30.4477 13 30 12.5523 30 12C30 11.4477 30.4477 11 31 11ZM34 11C34.5523 11 35 11.4477 35 12C35 12.5523 34.5523 13 34 13C33.4477 13 33 12.5523 33 12C33 11.4477 33.4477 11 34 11Z" fill="black"/>
</svg>
