<svg width="512" height="512" viewBox="0 0 512 512" fill="none" xmlns="http://www.w3.org/2000/svg">
<path d="M256 418C267.044 418 276 409.044 276 398C276 386.956 267.044 378 256 378C244.956 378 236 386.956 236 398C236 409.044 244.956 418 256 418Z" fill="#364153"/>
<path d="M256 136C267.044 136 276 127.044 276 116C276 104.956 267.044 96 256 96C244.956 96 236 104.956 236 116C236 127.044 244.956 136 256 136Z" fill="#364153"/>
<path d="M30 169C30 164.582 33.5817 161 38 161H335C339.418 161 343 164.582 343 169V179C343 183.418 339.418 187 335 187H38C33.5817 187 30 183.418 30 179V169Z" fill="#364153"/>
<path d="M395 317H473C476.314 317 479 319.686 479 323V346C479 349.314 476.314 352 473 352H395C391.686 352 389 349.314 389 346V323C389 319.686 391.686 317 395 317Z" stroke="#364153" stroke-width="4"/>
<path d="M277 323C277 318.582 280.582 315 285 315H363C367.418 315 371 318.582 371 323V346C371 350.418 367.418 354 363 354H285C280.582 354 277 350.418 277 346V323Z" fill="#00CFF5"/>
<path d="M30 211C30 207.134 33.134 204 37 204H419C422.866 204 426 207.134 426 211V211C426 214.866 422.866 218 419 218H37C33.134 218 30 214.866 30 211V211Z" fill="#364153"/>
<path d="M30 231C30 227.134 33.134 224 37 224H430C433.866 224 437 227.134 437 231V231C437 234.866 433.866 238 430 238H37C33.134 238 30 234.866 30 231V231Z" fill="#364153"/>
<path d="M30 251C30 247.134 33.134 244 37 244H414C417.866 244 421 247.134 421 251V251C421 254.866 417.866 258 414 258H37C33.134 258 30 254.866 30 251V251Z" fill="#364153"/>
<path d="M30 271C30 267.134 33.134 264 37 264H470C473.866 264 477 267.134 477 271V271C477 274.866 473.866 278 470 278H37C33.134 278 30 274.866 30 271V271Z" fill="#364153"/>
<path d="M30 291C30 287.134 33.134 284 37 284H462C465.866 284 469 287.134 469 291V291C469 294.866 465.866 298 462 298H37C33.134 298 30 294.866 30 291V291Z" fill="#364153"/>
<path d="M28 117H484C497.255 117 508 127.745 508 141V370C508 383.255 497.255 394 484 394H28C14.7452 394 4 383.255 4 370V141C4 127.745 14.7452 117 28 117Z" stroke="white" stroke-width="8"/>
</svg>
