<svg width="512" height="512" viewBox="0 0 512 512" fill="none" xmlns="http://www.w3.org/2000/svg">
<path d="M80.4642 336C70.7672 336 61.0703 334.147 51.3733 330.44C41.8827 326.528 33.2173 321.071 25.3772 314.07C17.5371 307.068 11.3475 298.728 6.80851 289.05C2.2695 279.166 0 268.252 0 256.309C0 245.189 2.06319 234.893 6.18955 225.421C10.3159 215.743 16.0928 207.197 23.5203 199.784C30.9478 192.371 39.4068 186.605 48.8975 182.487C58.5945 178.162 68.9104 176 79.8453 176C94.7002 176 108.111 179.604 120.077 186.811C132.25 193.812 141.947 203.387 149.168 215.537C156.389 227.686 160 241.174 160 256C160 268.561 157.627 279.784 152.882 289.668C148.343 299.346 142.153 307.686 134.313 314.687C126.68 321.689 118.117 327.042 108.627 330.749C99.3424 334.25 89.9549 336 80.4642 336ZM79.8453 289.359C84.7969 289.359 89.8517 288.124 95.0097 285.653C100.168 283.181 104.5 279.475 108.008 274.533C111.515 269.591 113.269 263.31 113.269 255.691C113.269 249.102 111.825 243.336 108.936 238.394C106.048 233.452 102.025 229.642 96.8665 226.965C91.9149 224.082 86.138 222.641 79.5358 222.641C73.3462 222.641 67.7756 224.082 62.824 226.965C58.0787 229.848 54.1586 233.864 51.0638 239.012C48.1754 243.954 46.7311 249.616 46.7311 256C46.7311 263.413 48.3817 269.694 51.6828 274.842C55.1902 279.784 59.5229 283.49 64.6809 285.961C69.8388 288.227 74.8936 289.359 79.8453 289.359Z" fill="#00CFF5"/>
<path d="M256.464 336C246.767 336 237.07 334.147 227.373 330.44C217.883 326.528 209.217 321.071 201.377 314.07C193.537 307.068 187.348 298.728 182.809 289.05C178.27 279.166 176 268.252 176 256.309C176 245.189 178.063 234.893 182.19 225.421C186.316 215.743 192.093 207.197 199.52 199.784C206.948 192.371 215.407 186.605 224.897 182.487C234.594 178.162 244.91 176 255.845 176C270.7 176 284.111 179.604 296.077 186.811C308.25 193.812 317.947 203.387 325.168 215.537C332.389 227.686 336 241.174 336 256C336 268.561 333.627 279.784 328.882 289.668C324.343 299.346 318.153 307.686 310.313 314.687C302.68 321.689 294.117 327.042 284.627 330.749C275.342 334.25 265.955 336 256.464 336ZM255.845 289.359C260.797 289.359 265.852 288.124 271.01 285.653C276.168 283.181 280.5 279.475 284.008 274.533C287.515 269.591 289.269 263.31 289.269 255.691C289.269 249.102 287.825 243.336 284.936 238.394C282.048 233.452 278.025 229.642 272.867 226.965C267.915 224.082 262.138 222.641 255.536 222.641C249.346 222.641 243.776 224.082 238.824 226.965C234.079 229.848 230.159 233.864 227.064 239.012C224.175 243.954 222.731 249.616 222.731 256C222.731 263.413 224.382 269.694 227.683 274.842C231.19 279.784 235.523 283.49 240.681 285.961C245.839 288.227 250.894 289.359 255.845 289.359Z" fill="#FFDE00"/>
<path d="M432.464 336C422.767 336 413.07 334.147 403.373 330.44C393.883 326.528 385.217 321.071 377.377 314.07C369.537 307.068 363.348 298.728 358.809 289.05C354.27 279.166 352 268.252 352 256.309C352 245.189 354.063 234.893 358.19 225.421C362.316 215.743 368.093 207.197 375.52 199.784C382.948 192.371 391.407 186.605 400.897 182.487C410.594 178.162 420.91 176 431.845 176C446.7 176 460.111 179.604 472.077 186.811C484.25 193.812 493.947 203.387 501.168 215.537C508.389 227.686 512 241.174 512 256C512 268.561 509.627 279.784 504.882 289.668C500.343 299.346 494.153 307.686 486.313 314.687C478.68 321.689 470.117 327.042 460.627 330.749C451.342 334.25 441.955 336 432.464 336ZM431.845 289.359C436.797 289.359 441.852 288.124 447.01 285.653C452.168 283.181 456.5 279.475 460.008 274.533C463.515 269.591 465.269 263.31 465.269 255.691C465.269 249.102 463.825 243.336 460.936 238.394C458.048 233.452 454.025 229.642 448.867 226.965C443.915 224.082 438.138 222.641 431.536 222.641C425.346 222.641 419.776 224.082 414.824 226.965C410.079 229.848 406.159 233.864 403.064 239.012C400.175 243.954 398.731 249.616 398.731 256C398.731 263.413 400.382 269.694 403.683 274.842C407.19 279.784 411.523 283.49 416.681 285.961C421.839 288.227 426.894 289.359 431.845 289.359Z" fill="#FF00A8"/>
</svg>
