<svg width="44" height="44" viewBox="0 0 44 44" fill="none" xmlns="http://www.w3.org/2000/svg">
<path opacity="0.2" d="M38.5 9.625V34.375C38.5 34.7397 38.3551 35.0894 38.0973 35.3473C37.8394 35.6051 37.4897 35.75 37.125 35.75H6.875C6.51033 35.75 6.16059 35.6051 5.90273 35.3473C5.64487 35.0894 5.5 34.7397 5.5 34.375V9.625C5.5 9.26033 5.64487 8.91059 5.90273 8.65273C6.16059 8.39487 6.51033 8.25 6.875 8.25H37.125C37.4897 8.25 37.8394 8.39487 38.0973 8.65273C38.3551 8.91059 38.5 9.26033 38.5 9.625Z" fill="black"/>
<path d="M37.125 6.875C37.8543 6.875 38.5536 7.16494 39.0693 7.68066C39.5851 8.19639 39.875 8.89566 39.875 9.625V34.375C39.875 35.1043 39.5851 35.8036 39.0693 36.3193C38.5536 36.8351 37.8543 37.125 37.125 37.125H6.875C6.14565 37.125 5.44639 36.8351 4.93066 36.3193C4.41494 35.8036 4.125 35.1043 4.125 34.375V9.625C4.125 8.89565 4.41494 8.19639 4.93066 7.68066C5.44639 7.16494 6.14565 6.875 6.875 6.875H37.125ZM6.875 34.375H37.125V9.625H6.875V34.375ZM24.1025 18.0049C24.573 18.0528 24.9472 18.427 24.9951 18.8975C24.9985 18.9312 25 18.9654 25 19V29C25 29.0346 24.9985 29.0688 24.9951 29.1025C24.9472 29.573 24.573 29.9472 24.1025 29.9951C24.0688 29.9985 24.0346 30 24 30H14C13.4823 30 13.0562 29.6067 13.0049 29.1025C13.0015 29.0688 13 29.0346 13 29V19C13 18.4477 13.4477 18 14 18H24C24.0346 18 24.0688 18.0015 24.1025 18.0049ZM16 27H22V21H16V27ZM29 13C29.0346 13 29.0688 13.0015 29.1025 13.0049C29.573 13.0528 29.9472 13.427 29.9951 13.8975C29.9985 13.9312 30 13.9654 30 14V24C30 24.5523 29.5523 25 29 25H28C27.4477 25 27 24.5523 27 24V16H19C18.4477 16 18 15.5523 18 15V14C18 13.4477 18.4477 13 19 13H29Z" fill="black"/>
</svg>
