<svg width="1174" height="572" viewBox="0 0 1174 572" fill="none" xmlns="http://www.w3.org/2000/svg">
<path d="M504.582 458.073C504.582 465.623 498.439 471.764 490.89 471.764H21.1073C13.5578 471.764 7.41594 465.623 7.41594 458.073V439.158H205.893V446.471C205.893 453.314 211.459 458.879 218.301 458.879H293.698C300.54 458.879 306.104 453.314 306.104 446.471V439.158H504.582V458.073ZM298.69 439.158V446.471C298.69 449.223 296.449 451.464 293.698 451.464H218.301C215.548 451.464 213.309 449.223 213.309 446.471V439.158H298.69ZM58.4544 166.296C58.4544 158.745 64.5959 152.602 72.1457 152.602H439.854C447.403 152.602 453.546 158.745 453.546 166.296V431.739H58.4544V166.296ZM508.289 431.739H460.96V166.296C460.96 154.654 451.49 145.183 439.854 145.183H72.1457C60.5071 145.183 51.0381 154.654 51.0381 166.296V431.739H3.70779C1.66002 431.739 0 433.401 0 435.447V458.073C0 469.711 9.46868 479.183 21.1073 479.183H490.89C502.53 479.183 512 469.711 512 458.073V435.447C512 433.401 510.338 431.739 508.289 431.739Z" fill="white"/>
<path d="M87.0928 196.183C85.1535 196.183 83.2141 195.812 81.2747 195.071C79.3765 194.288 77.6435 193.197 76.0754 191.797C74.5074 190.396 73.2695 188.728 72.3617 186.793C71.4539 184.816 71 182.633 71 180.244C71 178.02 71.4126 175.961 72.2379 174.067C73.0632 172.131 74.2186 170.422 75.7041 168.939C77.1896 167.457 78.8814 166.304 80.7795 165.48C82.7189 164.615 84.7821 164.183 86.9691 164.183C89.94 164.183 92.6222 164.903 95.0155 166.345C97.45 167.745 99.3894 169.66 100.834 172.09C102.278 174.52 103 177.217 103 180.183C103 182.695 102.525 184.939 101.576 186.916C100.669 188.852 99.4307 190.52 97.8627 191.92C96.3359 193.32 94.6235 194.391 92.7253 195.132C90.8685 195.833 88.991 196.183 87.0928 196.183ZM86.9691 186.854C87.9594 186.854 88.9703 186.607 90.0019 186.113C91.0335 185.619 91.9001 184.878 92.6015 183.889C93.303 182.901 93.6538 181.645 93.6538 180.121C93.6538 178.803 93.3649 177.65 92.7872 176.661C92.2095 175.673 91.4049 174.911 90.3733 174.376C89.383 173.799 88.2276 173.511 86.9072 173.511C85.6692 173.511 84.5551 173.799 83.5648 174.376C82.6157 174.952 81.8317 175.755 81.2128 176.785C80.6351 177.773 80.3462 178.906 80.3462 180.183C80.3462 181.665 80.6763 182.921 81.3366 183.951C82.038 184.939 82.9046 185.681 83.9362 186.175C84.9678 186.628 85.9787 186.854 86.9691 186.854Z" fill="#00CFF5"/>
<path d="M123.093 196.183C121.153 196.183 119.214 195.812 117.275 195.071C115.377 194.288 113.643 193.197 112.075 191.797C110.507 190.396 109.27 188.728 108.362 186.793C107.454 184.816 107 182.633 107 180.244C107 178.02 107.413 175.961 108.238 174.067C109.063 172.131 110.219 170.422 111.704 168.939C113.19 167.457 114.881 166.304 116.779 165.48C118.719 164.615 120.782 164.183 122.969 164.183C125.94 164.183 128.622 164.903 131.015 166.345C133.45 167.745 135.389 169.66 136.834 172.09C138.278 174.52 139 177.217 139 180.183C139 182.695 138.525 184.939 137.576 186.916C136.669 188.852 135.431 190.52 133.863 191.92C132.336 193.32 130.623 194.391 128.725 195.132C126.868 195.833 124.991 196.183 123.093 196.183ZM122.969 186.854C123.959 186.854 124.97 186.607 126.002 186.113C127.034 185.619 127.9 184.878 128.602 183.889C129.303 182.901 129.654 181.645 129.654 180.121C129.654 178.803 129.365 177.65 128.787 176.661C128.21 175.673 127.405 174.911 126.373 174.376C125.383 173.799 124.228 173.511 122.907 173.511C121.669 173.511 120.555 173.799 119.565 174.376C118.616 174.952 117.832 175.755 117.213 176.785C116.635 177.773 116.346 178.906 116.346 180.183C116.346 181.665 116.676 182.921 117.337 183.951C118.038 184.939 118.905 185.681 119.936 186.175C120.968 186.628 121.979 186.854 122.969 186.854Z" fill="#FFDE00"/>
<path d="M157.093 196.183C155.153 196.183 153.214 195.812 151.275 195.071C149.377 194.288 147.643 193.197 146.075 191.797C144.507 190.396 143.27 188.728 142.362 186.793C141.454 184.816 141 182.633 141 180.244C141 178.02 141.413 175.961 142.238 174.067C143.063 172.131 144.219 170.422 145.704 168.939C147.19 167.457 148.881 166.304 150.779 165.48C152.719 164.615 154.782 164.183 156.969 164.183C159.94 164.183 162.622 164.903 165.015 166.345C167.45 167.745 169.389 169.66 170.834 172.09C172.278 174.52 173 177.217 173 180.183C173 182.695 172.525 184.939 171.576 186.916C170.669 188.852 169.431 190.52 167.863 191.92C166.336 193.32 164.623 194.391 162.725 195.132C160.868 195.833 158.991 196.183 157.093 196.183ZM156.969 186.854C157.959 186.854 158.97 186.607 160.002 186.113C161.034 185.619 161.9 184.878 162.602 183.889C163.303 182.901 163.654 181.645 163.654 180.121C163.654 178.803 163.365 177.65 162.787 176.661C162.21 175.673 161.405 174.911 160.373 174.376C159.383 173.799 158.228 173.511 156.907 173.511C155.669 173.511 154.555 173.799 153.565 174.376C152.616 174.952 151.832 175.755 151.213 176.785C150.635 177.773 150.346 178.906 150.346 180.183C150.346 181.665 150.676 182.921 151.337 183.951C152.038 184.939 152.905 185.681 153.936 186.175C154.968 186.628 155.979 186.854 156.969 186.854Z" fill="#FF00A8"/>
<path d="M425.093 196.183C423.153 196.183 421.214 195.812 419.275 195.071C417.377 194.288 415.643 193.197 414.075 191.797C412.507 190.396 411.27 188.728 410.362 186.793C409.454 184.816 409 182.633 409 180.244C409 178.02 409.413 175.961 410.238 174.067C411.063 172.131 412.219 170.422 413.704 168.939C415.19 167.457 416.881 166.304 418.779 165.48C420.719 164.615 422.782 164.183 424.969 164.183C427.94 164.183 430.622 164.903 433.015 166.345C435.45 167.745 437.389 169.66 438.834 172.09C440.278 174.52 441 177.217 441 180.183C441 182.695 440.525 184.939 439.576 186.916C438.669 188.852 437.431 190.52 435.863 191.92C434.336 193.32 432.623 194.391 430.725 195.132C428.868 195.833 426.991 196.183 425.093 196.183ZM424.969 186.854C425.959 186.854 426.97 186.607 428.002 186.113C429.034 185.619 429.9 184.878 430.602 183.889C431.303 182.901 431.654 181.645 431.654 180.121C431.654 178.803 431.365 177.65 430.787 176.661C430.21 175.673 429.405 174.911 428.373 174.376C427.383 173.799 426.228 173.511 424.907 173.511C423.669 173.511 422.555 173.799 421.565 174.376C420.616 174.952 419.832 175.755 419.213 176.785C418.635 177.773 418.346 178.906 418.346 180.183C418.346 181.665 418.676 182.921 419.337 183.951C420.038 184.939 420.905 185.681 421.936 186.175C422.968 186.628 423.979 186.854 424.969 186.854Z" fill="#8A38F5"/>
<path d="M79 215.183H343C346.314 215.183 349 217.869 349 221.183V262.183C349 265.496 346.314 268.183 343 268.183H79C75.6863 268.183 73 265.496 73 262.183V221.183C73 217.869 75.6863 215.183 79 215.183Z" stroke="#364153" stroke-width="4"/>
<path d="M79 288.183H147C150.314 288.183 153 290.869 153 294.183V335.183C153 338.496 150.314 341.183 147 341.183H79C75.6863 341.183 73 338.496 73 335.183V294.183C73 290.869 75.6863 288.183 79 288.183Z" stroke="#364153" stroke-width="4"/>
<path d="M177 288.183H245C248.314 288.183 251 290.869 251 294.183V335.183C251 338.496 248.314 341.183 245 341.183H177C173.686 341.183 171 338.496 171 335.183V294.183C171 290.869 173.686 288.183 177 288.183Z" stroke="#364153" stroke-width="4"/>
<path d="M275 288.183H343C346.314 288.183 349 290.869 349 294.183V335.183C349 338.496 346.314 341.183 343 341.183H275C271.686 341.183 269 338.496 269 335.183V294.183C269 290.869 271.686 288.183 275 288.183Z" stroke="#364153" stroke-width="4"/>
<path d="M362 221.183C362 216.764 365.582 213.183 370 213.183H433C437.418 213.183 441 216.764 441 221.183V223.183C441 227.601 437.418 231.183 433 231.183H370C365.582 231.183 362 227.601 362 223.183V221.183Z" fill="#00CFF5"/>
<path d="M370 237.183H433C436.314 237.183 439 239.869 439 243.183V262.183C439 265.496 436.314 268.183 433 268.183H370C366.686 268.183 364 265.496 364 262.183V243.183C364 239.869 366.686 237.183 370 237.183Z" stroke="#364153" stroke-width="4"/>
<path d="M370 277.183H433C436.314 277.183 439 279.869 439 283.183V302.183C439 305.496 436.314 308.183 433 308.183H370C366.686 308.183 364 305.496 364 302.183V283.183C364 279.869 366.686 277.183 370 277.183Z" stroke="#364153" stroke-width="4"/>
<path d="M370 317.183H433C436.314 317.183 439 319.869 439 323.183V408.183C439 411.496 436.314 414.183 433 414.183H370C366.686 414.183 364 411.496 364 408.183V323.183C364 319.869 366.686 317.183 370 317.183Z" stroke="#364153" stroke-width="4"/>
<path d="M79 361.183H147C150.314 361.183 153 363.869 153 367.183V408.183C153 411.496 150.314 414.183 147 414.183H79C75.6863 414.183 73 411.496 73 408.183V367.183C73 363.869 75.6863 361.183 79 361.183Z" stroke="#364153" stroke-width="4"/>
<path d="M177 361.183H245C248.314 361.183 251 363.869 251 367.183V408.183C251 411.496 248.314 414.183 245 414.183H177C173.686 414.183 171 411.496 171 408.183V367.183C171 363.869 173.686 361.183 177 361.183Z" stroke="#364153" stroke-width="4"/>
<path d="M275 361.183H343C346.314 361.183 349 363.869 349 367.183V408.183C349 411.496 346.314 414.183 343 414.183H275C271.686 414.183 269 411.496 269 408.183V367.183C269 363.869 271.686 361.183 275 361.183Z" stroke="#364153" stroke-width="4"/>
<path d="M79 227.183C79 224.973 80.7909 223.183 83 223.183H200C202.209 223.183 204 224.973 204 227.183V231.183C204 233.392 202.209 235.183 200 235.183H83C80.7909 235.183 79 233.392 79 231.183V227.183Z" fill="#364153"/>
<path d="M330 227.183C330 224.973 331.791 223.183 334 223.183H338C340.209 223.183 342 224.973 342 227.183V231.183C342 233.392 340.209 235.183 338 235.183H334C331.791 235.183 330 233.392 330 231.183V227.183Z" fill="#364153"/>
<path d="M79 244.683C79 242.75 80.567 241.183 82.5 241.183H338.5C340.433 241.183 342 242.75 342 244.683V244.683C342 246.616 340.433 248.183 338.5 248.183H82.5C80.567 248.183 79 246.616 79 244.683V244.683Z" fill="#364153"/>
<path d="M79 257.683C79 255.75 80.567 254.183 82.5 254.183H338.5C340.433 254.183 342 255.75 342 257.683V257.683C342 259.616 340.433 261.183 338.5 261.183H82.5C80.567 261.183 79 259.616 79 257.683V257.683Z" fill="#364153"/>
<path d="M1166.58 461.073C1166.58 468.623 1160.44 474.764 1152.89 474.764H683.107C675.558 474.764 669.416 468.623 669.416 461.073V442.158H867.893V449.471C867.893 456.314 873.459 461.879 880.301 461.879H955.698C962.54 461.879 968.104 456.314 968.104 449.471V442.158H1166.58V461.073ZM960.69 442.158V449.471C960.69 452.223 958.449 454.464 955.698 454.464H880.301C877.548 454.464 875.309 452.223 875.309 449.471V442.158H960.69ZM720.454 169.296C720.454 161.745 726.596 155.602 734.146 155.602H1101.85C1109.4 155.602 1115.55 161.745 1115.55 169.296V434.739H720.454V169.296ZM1170.29 434.739H1122.96V169.296C1122.96 157.654 1113.49 148.183 1101.85 148.183H734.146C722.507 148.183 713.038 157.654 713.038 169.296V434.739H665.708C663.66 434.739 662 436.401 662 438.447V461.073C662 472.711 671.469 482.183 683.107 482.183H1152.89C1164.53 482.183 1174 472.711 1174 461.073V438.447C1174 436.401 1172.34 434.739 1170.29 434.739Z" fill="white"/>
<path d="M749.093 199.183C747.153 199.183 745.214 198.812 743.275 198.071C741.377 197.288 739.643 196.197 738.075 194.797C736.507 193.396 735.27 191.728 734.362 189.793C733.454 187.816 733 185.633 733 183.244C733 181.02 733.413 178.961 734.238 177.067C735.063 175.131 736.219 173.422 737.704 171.939C739.19 170.457 740.881 169.304 742.779 168.48C744.719 167.615 746.782 167.183 748.969 167.183C751.94 167.183 754.622 167.903 757.015 169.345C759.45 170.745 761.389 172.66 762.834 175.09C764.278 177.52 765 180.217 765 183.183C765 185.695 764.525 187.939 763.576 189.916C762.669 191.852 761.431 193.52 759.863 194.92C758.336 196.32 756.623 197.391 754.725 198.132C752.868 198.833 750.991 199.183 749.093 199.183ZM748.969 189.854C749.959 189.854 750.97 189.607 752.002 189.113C753.034 188.619 753.9 187.878 754.602 186.889C755.303 185.901 755.654 184.645 755.654 183.121C755.654 181.803 755.365 180.65 754.787 179.661C754.21 178.673 753.405 177.911 752.373 177.376C751.383 176.799 750.228 176.511 748.907 176.511C747.669 176.511 746.555 176.799 745.565 177.376C744.616 177.952 743.832 178.755 743.213 179.785C742.635 180.773 742.346 181.906 742.346 183.183C742.346 184.665 742.676 185.921 743.337 186.951C744.038 187.939 744.905 188.681 745.936 189.175C746.968 189.628 747.979 189.854 748.969 189.854Z" fill="#00CFF5"/>
<path d="M785.093 199.183C783.153 199.183 781.214 198.812 779.275 198.071C777.377 197.288 775.643 196.197 774.075 194.797C772.507 193.396 771.27 191.728 770.362 189.793C769.454 187.816 769 185.633 769 183.244C769 181.02 769.413 178.961 770.238 177.067C771.063 175.131 772.219 173.422 773.704 171.939C775.19 170.457 776.881 169.304 778.779 168.48C780.719 167.615 782.782 167.183 784.969 167.183C787.94 167.183 790.622 167.903 793.015 169.345C795.45 170.745 797.389 172.66 798.834 175.09C800.278 177.52 801 180.217 801 183.183C801 185.695 800.525 187.939 799.576 189.916C798.669 191.852 797.431 193.52 795.863 194.92C794.336 196.32 792.623 197.391 790.725 198.132C788.868 198.833 786.991 199.183 785.093 199.183ZM784.969 189.854C785.959 189.854 786.97 189.607 788.002 189.113C789.034 188.619 789.9 187.878 790.602 186.889C791.303 185.901 791.654 184.645 791.654 183.121C791.654 181.803 791.365 180.65 790.787 179.661C790.21 178.673 789.405 177.911 788.373 177.376C787.383 176.799 786.228 176.511 784.907 176.511C783.669 176.511 782.555 176.799 781.565 177.376C780.616 177.952 779.832 178.755 779.213 179.785C778.635 180.773 778.346 181.906 778.346 183.183C778.346 184.665 778.676 185.921 779.337 186.951C780.038 187.939 780.905 188.681 781.936 189.175C782.968 189.628 783.979 189.854 784.969 189.854Z" fill="#FFDE00"/>
<path d="M819.093 199.183C817.153 199.183 815.214 198.812 813.275 198.071C811.377 197.288 809.643 196.197 808.075 194.797C806.507 193.396 805.27 191.728 804.362 189.793C803.454 187.816 803 185.633 803 183.244C803 181.02 803.413 178.961 804.238 177.067C805.063 175.131 806.219 173.422 807.704 171.939C809.19 170.457 810.881 169.304 812.779 168.48C814.719 167.615 816.782 167.183 818.969 167.183C821.94 167.183 824.622 167.903 827.015 169.345C829.45 170.745 831.389 172.66 832.834 175.09C834.278 177.52 835 180.217 835 183.183C835 185.695 834.525 187.939 833.576 189.916C832.669 191.852 831.431 193.52 829.863 194.92C828.336 196.32 826.623 197.391 824.725 198.132C822.868 198.833 820.991 199.183 819.093 199.183ZM818.969 189.854C819.959 189.854 820.97 189.607 822.002 189.113C823.034 188.619 823.9 187.878 824.602 186.889C825.303 185.901 825.654 184.645 825.654 183.121C825.654 181.803 825.365 180.65 824.787 179.661C824.21 178.673 823.405 177.911 822.373 177.376C821.383 176.799 820.228 176.511 818.907 176.511C817.669 176.511 816.555 176.799 815.565 177.376C814.616 177.952 813.832 178.755 813.213 179.785C812.635 180.773 812.346 181.906 812.346 183.183C812.346 184.665 812.676 185.921 813.337 186.951C814.038 187.939 814.905 188.681 815.936 189.175C816.968 189.628 817.979 189.854 818.969 189.854Z" fill="#FF00A8"/>
<path d="M1087.09 199.183C1085.15 199.183 1083.21 198.812 1081.27 198.071C1079.38 197.288 1077.64 196.197 1076.08 194.797C1074.51 193.396 1073.27 191.728 1072.36 189.793C1071.45 187.816 1071 185.633 1071 183.244C1071 181.02 1071.41 178.961 1072.24 177.067C1073.06 175.131 1074.22 173.422 1075.7 171.939C1077.19 170.457 1078.88 169.304 1080.78 168.48C1082.72 167.615 1084.78 167.183 1086.97 167.183C1089.94 167.183 1092.62 167.903 1095.02 169.345C1097.45 170.745 1099.39 172.66 1100.83 175.09C1102.28 177.52 1103 180.217 1103 183.183C1103 185.695 1102.53 187.939 1101.58 189.916C1100.67 191.852 1099.43 193.52 1097.86 194.92C1096.34 196.32 1094.62 197.391 1092.73 198.132C1090.87 198.833 1088.99 199.183 1087.09 199.183ZM1086.97 189.854C1087.96 189.854 1088.97 189.607 1090 189.113C1091.03 188.619 1091.9 187.878 1092.6 186.889C1093.3 185.901 1093.65 184.645 1093.65 183.121C1093.65 181.803 1093.36 180.65 1092.79 179.661C1092.21 178.673 1091.4 177.911 1090.37 177.376C1089.38 176.799 1088.23 176.511 1086.91 176.511C1085.67 176.511 1084.56 176.799 1083.56 177.376C1082.62 177.952 1081.83 178.755 1081.21 179.785C1080.64 180.773 1080.35 181.906 1080.35 183.183C1080.35 184.665 1080.68 185.921 1081.34 186.951C1082.04 187.939 1082.9 188.681 1083.94 189.175C1084.97 189.628 1085.98 189.854 1086.97 189.854Z" fill="#8A38F5"/>
<path d="M741 218.183H1005C1008.31 218.183 1011 220.869 1011 224.183V265.183C1011 268.496 1008.31 271.183 1005 271.183H741C737.686 271.183 735 268.496 735 265.183V224.183C735 220.869 737.686 218.183 741 218.183Z" stroke="#364153" stroke-width="4"/>
<path d="M741 291.183H809C812.314 291.183 815 293.869 815 297.183V338.183C815 341.496 812.314 344.183 809 344.183H741C737.686 344.183 735 341.496 735 338.183V297.183C735 293.869 737.686 291.183 741 291.183Z" stroke="#364153" stroke-width="4"/>
<path d="M839 291.183H907C910.314 291.183 913 293.869 913 297.183V338.183C913 341.496 910.314 344.183 907 344.183H839C835.686 344.183 833 341.496 833 338.183V297.183C833 293.869 835.686 291.183 839 291.183Z" stroke="#364153" stroke-width="4"/>
<path d="M937 291.183H1005C1008.31 291.183 1011 293.869 1011 297.183V338.183C1011 341.496 1008.31 344.183 1005 344.183H937C933.686 344.183 931 341.496 931 338.183V297.183C931 293.869 933.686 291.183 937 291.183Z" stroke="#364153" stroke-width="4"/>
<path d="M1024 224.183C1024 219.764 1027.58 216.183 1032 216.183H1095C1099.42 216.183 1103 219.764 1103 224.183V226.183C1103 230.601 1099.42 234.183 1095 234.183H1032C1027.58 234.183 1024 230.601 1024 226.183V224.183Z" fill="#00CFF5"/>
<path d="M1032 240.183H1095C1098.31 240.183 1101 242.869 1101 246.183V265.183C1101 268.496 1098.31 271.183 1095 271.183H1032C1028.69 271.183 1026 268.496 1026 265.183V246.183C1026 242.869 1028.69 240.183 1032 240.183Z" stroke="#364153" stroke-width="4"/>
<path d="M1032 280.183H1095C1098.31 280.183 1101 282.869 1101 286.183V305.183C1101 308.496 1098.31 311.183 1095 311.183H1032C1028.69 311.183 1026 308.496 1026 305.183V286.183C1026 282.869 1028.69 280.183 1032 280.183Z" stroke="#364153" stroke-width="4"/>
<path d="M1032 320.183H1095C1098.31 320.183 1101 322.869 1101 326.183V411.183C1101 414.496 1098.31 417.183 1095 417.183H1032C1028.69 417.183 1026 414.496 1026 411.183V326.183C1026 322.869 1028.69 320.183 1032 320.183Z" stroke="#364153" stroke-width="4"/>
<path d="M741 364.183H809C812.314 364.183 815 366.869 815 370.183V411.183C815 414.496 812.314 417.183 809 417.183H741C737.686 417.183 735 414.496 735 411.183V370.183C735 366.869 737.686 364.183 741 364.183Z" stroke="#364153" stroke-width="4"/>
<path d="M839 364.183H907C910.314 364.183 913 366.869 913 370.183V411.183C913 414.496 910.314 417.183 907 417.183H839C835.686 417.183 833 414.496 833 411.183V370.183C833 366.869 835.686 364.183 839 364.183Z" stroke="#364153" stroke-width="4"/>
<path d="M937 364.183H1005C1008.31 364.183 1011 366.869 1011 370.183V411.183C1011 414.496 1008.31 417.183 1005 417.183H937C933.686 417.183 931 414.496 931 411.183V370.183C931 366.869 933.686 364.183 937 364.183Z" stroke="#364153" stroke-width="4"/>
<path d="M741 230.183C741 227.973 742.791 226.183 745 226.183H862C864.209 226.183 866 227.973 866 230.183V234.183C866 236.392 864.209 238.183 862 238.183H745C742.791 238.183 741 236.392 741 234.183V230.183Z" fill="#364153"/>
<path d="M992 230.183C992 227.973 993.791 226.183 996 226.183H1000C1002.21 226.183 1004 227.973 1004 230.183V234.183C1004 236.392 1002.21 238.183 1000 238.183H996C993.791 238.183 992 236.392 992 234.183V230.183Z" fill="#364153"/>
<path d="M741 247.683C741 245.75 742.567 244.183 744.5 244.183H1000.5C1002.43 244.183 1004 245.75 1004 247.683V247.683C1004 249.616 1002.43 251.183 1000.5 251.183H744.5C742.567 251.183 741 249.616 741 247.683V247.683Z" fill="#364153"/>
<path d="M741 260.683C741 258.75 742.567 257.183 744.5 257.183H1000.5C1002.43 257.183 1004 258.75 1004 260.683V260.683C1004 262.616 1002.43 264.183 1000.5 264.183H744.5C742.567 264.183 741 262.616 741 260.683V260.683Z" fill="#364153"/>
<path d="M332 119.183C519.135 6.38696 638.527 -13.0303 831 98.189" stroke="white" stroke-width="11" stroke-dasharray="22 22"/>
<g clip-path="url(#clip0_324_289)">
<path opacity="0.2" d="M879.593 130.489L820.622 130.266C820.126 130.259 819.644 130.101 819.24 129.813C818.836 129.525 818.53 129.121 818.362 128.654C818.194 128.187 818.173 127.68 818.3 127.201C818.428 126.722 818.699 126.293 819.077 125.972L841.61 106.145L847.506 76.7313C847.595 76.2434 847.831 75.7943 848.182 75.444C848.534 75.0938 848.983 74.859 849.471 74.7711C849.96 74.6832 850.463 74.7463 850.914 74.9521C851.366 75.1578 851.744 75.4964 851.998 75.9226L881.725 126.808C881.946 127.181 882.064 127.606 882.066 128.039C882.068 128.472 881.955 128.898 881.738 129.273C881.52 129.648 881.207 129.958 880.83 130.172C880.453 130.386 880.026 130.495 879.593 130.489Z" fill="white"/>
<path d="M883.816 125.588L854.094 74.6916C853.59 73.839 852.837 73.1603 851.937 72.7462C851.037 72.332 850.032 72.2019 849.056 72.3733C848.08 72.5447 847.18 73.0094 846.474 73.7054C845.769 74.4015 845.293 75.2959 845.109 76.2695L839.38 104.858L817.484 124.116C816.892 124.623 816.43 125.265 816.136 125.987C815.843 126.71 815.727 127.492 815.799 128.268C815.87 129.044 816.127 129.792 816.547 130.449C816.967 131.106 817.539 131.652 818.214 132.042C818.949 132.464 819.779 132.689 820.626 132.696L879.568 132.933C880.433 132.944 881.285 132.725 882.037 132.298C882.789 131.871 883.415 131.252 883.848 130.504C884.282 129.755 884.509 128.905 884.506 128.04C884.503 127.175 884.269 126.327 883.83 125.582L883.816 125.588ZM820.652 127.82C820.659 127.81 820.665 127.8 820.67 127.789L841.905 109.131L857.278 118.006C857.838 118.329 858.503 118.417 859.128 118.25C859.752 118.082 860.285 117.674 860.608 117.114C860.931 116.554 861.019 115.889 860.851 115.264C860.684 114.64 860.276 114.108 859.716 113.784L844.343 104.909L849.893 77.2091C849.899 77.1927 849.902 77.1753 849.902 77.1578L879.632 128.038L820.652 127.82Z" fill="white"/>
</g>
<defs>
<clipPath id="clip0_324_289">
<rect width="78" height="78" fill="white" transform="translate(840 60.1826) rotate(30)"/>
</clipPath>
</defs>
</svg>
