<svg width="512" height="512" viewBox="0 0 512 512" fill="none" xmlns="http://www.w3.org/2000/svg">
<path d="M248 379C259.044 379 268 370.044 268 359C268 347.956 259.044 339 248 339C236.956 339 228 347.956 228 359C228 370.044 236.956 379 248 379Z" fill="#64748B"/>
<path d="M248 173C259.044 173 268 164.044 268 153C268 141.956 259.044 133 248 133C236.956 133 228 141.956 228 153C228 164.044 236.956 173 248 173Z" fill="#64748B"/>
<path d="M100 206C100 201.582 103.582 198 108 198H379C383.418 198 387 201.582 387 206V216C387 220.418 383.418 224 379 224H108C103.582 224 100 220.418 100 216V206Z" fill="#64748B"/>
<path d="M32 271C32 266.582 35.5817 263 40 263H456C460.418 263 464 266.582 464 271V303C464 307.418 460.418 311 456 311H40C35.5817 311 32 307.418 32 303V271Z" fill="#64748B"/>
<path d="M28 154H468C481.255 154 492 164.745 492 178V331C492 344.255 481.255 355 468 355H28C14.7452 355 4 344.255 4 331V178C4 164.745 14.7452 154 28 154Z" stroke="#E2E8F0" stroke-width="8"/>
<path d="M492 177C503.044 177 512 168.044 512 157C512 145.956 503.044 137 492 137C480.956 137 472 145.956 472 157C472 168.044 480.956 177 492 177Z" fill="#FF00A8"/>
<path d="M56.1393 235C53.2302 235 50.3211 234.444 47.412 233.332C44.5648 232.158 41.9652 230.521 39.6132 228.421C37.2611 226.32 35.4043 223.819 34.0426 220.915C32.6809 217.95 32 214.676 32 211.093C32 207.757 32.619 204.668 33.8569 201.826C35.0948 198.923 36.8279 196.359 39.0561 194.135C41.2843 191.911 43.822 190.181 46.6692 188.946C49.5783 187.649 52.6731 187 55.9536 187C60.4101 187 64.4333 188.081 68.0232 190.243C71.675 192.344 74.5841 195.216 76.7505 198.861C78.9168 202.506 80 206.552 80 211C80 214.768 79.2882 218.135 77.8646 221.1C76.5029 224.004 74.646 226.506 72.294 228.606C70.0039 230.707 67.4352 232.313 64.588 233.425C61.8027 234.475 58.9865 235 56.1393 235ZM55.9536 221.008C57.4391 221.008 58.9555 220.637 60.5029 219.896C62.0503 219.154 63.3501 218.042 64.4023 216.56C65.4545 215.077 65.9807 213.193 65.9807 210.907C65.9807 208.931 65.5474 207.201 64.6809 205.718C63.8143 204.236 62.6074 203.093 61.06 202.29C59.5745 201.425 57.8414 200.992 55.8607 200.992C54.0039 200.992 52.3327 201.425 50.8472 202.29C49.4236 203.154 48.2476 204.359 47.3192 205.903C46.4526 207.386 46.0193 209.085 46.0193 211C46.0193 213.224 46.5145 215.108 47.5048 216.653C48.5571 218.135 49.8569 219.247 51.4043 219.988C52.9516 220.668 54.4681 221.008 55.9536 221.008Z" fill="#00CFF5"/>
<path d="M499.677 152.434C499.771 152.266 499.906 152.154 500.083 152.098C500.261 152.042 500.48 152.014 500.741 152.014C501.012 152.014 501.227 152.037 501.385 152.084C501.553 152.131 501.675 152.187 501.749 152.252C501.833 152.317 501.894 152.415 501.931 152.546C501.987 152.695 502.015 152.933 502.015 153.26V161.03C502.015 161.254 502.006 161.417 501.987 161.52C501.978 161.623 501.936 161.744 501.861 161.884C501.731 162.136 501.367 162.262 500.769 162.262C500.405 162.262 500.153 162.234 500.013 162.178C499.873 162.122 499.757 162.033 499.663 161.912C497.563 159.112 496.182 157.283 495.519 156.424V161.03C495.519 161.254 495.51 161.417 495.491 161.52C495.482 161.623 495.44 161.744 495.365 161.884C495.235 162.136 494.871 162.262 494.273 162.262C493.695 162.262 493.34 162.136 493.209 161.884C493.135 161.744 493.088 161.618 493.069 161.506C493.06 161.394 493.055 161.231 493.055 161.016V153.204C493.055 152.849 493.097 152.593 493.181 152.434C493.275 152.266 493.41 152.154 493.587 152.098C493.765 152.042 493.993 152.014 494.273 152.014C494.553 152.014 494.773 152.042 494.931 152.098C495.099 152.145 495.216 152.201 495.281 152.266C495.319 152.294 495.426 152.415 495.603 152.63C497.573 155.309 498.889 157.077 499.551 157.936V153.204C499.551 152.849 499.593 152.593 499.677 152.434Z" fill="white"/>
<path d="M488.272 152.728L492.052 160.54C492.211 160.857 492.29 161.095 492.29 161.254C492.29 161.59 492.019 161.893 491.478 162.164C491.161 162.323 490.909 162.402 490.722 162.402C490.545 162.402 490.395 162.36 490.274 162.276C490.162 162.192 490.078 162.103 490.022 162.01C489.975 161.917 489.905 161.777 489.812 161.59L489.084 160.078H485.206L484.478 161.59C484.385 161.777 484.31 161.912 484.254 161.996C484.207 162.08 484.123 162.169 484.002 162.262C483.89 162.346 483.741 162.388 483.554 162.388C483.377 162.388 483.129 162.309 482.812 162.15C482.271 161.889 482 161.59 482 161.254C482 161.095 482.079 160.857 482.238 160.54L486.018 152.714C486.121 152.499 486.275 152.327 486.48 152.196C486.695 152.065 486.919 152 487.152 152C487.656 152 488.029 152.243 488.272 152.728ZM487.138 156.088L486.214 158.006H488.076L487.138 156.088Z" fill="white"/>
</svg>
