<svg width="512" height="512" viewBox="0 0 512 512" fill="none" xmlns="http://www.w3.org/2000/svg">
<path d="M256 474C267.044 474 276 465.044 276 454C276 442.956 267.044 434 256 434C244.956 434 236 442.956 236 454C236 465.044 244.956 474 256 474Z" fill="#64748B"/>
<path d="M256 78C267.044 78 276 69.0437 276 58C276 46.9563 267.044 38 256 38C244.956 38 236 46.9563 236 58C236 69.0437 244.956 78 256 78Z" fill="#64748B"/>
<path d="M28 59H484C497.255 59 508 69.7452 508 83V426C508 439.255 497.255 450 484 450H28C14.7452 450 4 439.255 4 426V83C4 69.7452 14.7452 59 28 59Z" stroke="#E2E8F0" stroke-width="8"/>
<path d="M33 368C33 363.582 36.5817 360 41 360H286C290.418 360 294 363.582 294 368V378C294 382.418 290.418 386 286 386H41C36.5817 386 33 382.418 33 378V368Z" fill="#64748B"/>
<path d="M33 410C33 406.134 36.134 403 40 403H312C315.866 403 319 406.134 319 410V410C319 413.866 315.866 417 312 417H40C36.134 417 33 413.866 33 410V410Z" fill="#64748B"/>
<path d="M32 102C32 97.5817 35.5817 94 40 94H473C477.418 94 481 97.5817 481 102V335C481 339.418 477.418 343 473 343H40C35.5817 343 32 339.418 32 335V102Z" fill="#64748B"/>
<path opacity="0.2" d="M256 183C248.88 183 241.92 185.111 235.999 189.067C230.079 193.023 225.465 198.645 222.74 205.223C220.016 211.802 219.303 219.04 220.692 226.023C222.081 233.007 225.509 239.421 230.544 244.456C235.579 249.491 241.993 252.919 248.977 254.308C255.96 255.697 263.198 254.984 269.777 252.26C276.355 249.535 281.977 244.921 285.933 239.001C289.889 233.08 292 226.12 292 219C292 209.452 288.207 200.295 281.456 193.544C274.705 186.793 265.548 183 256 183ZM248.5 234V204L272.5 219L248.5 234Z" fill="#FFDE00"/>
<path d="M256 180C248.287 180 240.746 182.287 234.333 186.573C227.919 190.858 222.921 196.949 219.969 204.075C217.017 211.202 216.245 219.043 217.749 226.609C219.254 234.174 222.969 241.123 228.423 246.577C233.877 252.031 240.826 255.746 248.391 257.251C255.957 258.755 263.798 257.983 270.925 255.031C278.051 252.079 284.142 247.081 288.427 240.667C292.713 234.254 295 226.713 295 219C294.989 208.66 290.877 198.746 283.565 191.435C276.254 184.123 266.34 180.011 256 180ZM256 252C249.473 252 243.093 250.065 237.666 246.438C232.239 242.812 228.01 237.659 225.512 231.629C223.014 225.599 222.361 218.963 223.634 212.562C224.907 206.161 228.05 200.281 232.665 195.665C237.281 191.05 243.161 187.907 249.562 186.634C255.963 185.361 262.599 186.014 268.629 188.512C274.659 191.01 279.812 195.239 283.439 200.666C287.065 206.093 289 212.473 289 219C288.99 227.749 285.51 236.137 279.324 242.324C273.137 248.51 264.749 251.99 256 252ZM274.09 216.458L250.09 201.458C249.636 201.174 249.114 201.017 248.579 201.003C248.044 200.988 247.515 201.118 247.046 201.377C246.578 201.637 246.188 202.017 245.916 202.478C245.644 202.939 245.5 203.465 245.5 204V234C245.5 234.535 245.644 235.061 245.916 235.522C246.188 235.983 246.578 236.363 247.046 236.623C247.515 236.882 248.044 237.012 248.579 236.997C249.114 236.983 249.636 236.826 250.09 236.542L274.09 221.542C274.521 221.273 274.876 220.898 275.122 220.453C275.368 220.008 275.498 219.508 275.498 219C275.498 218.492 275.368 217.992 275.122 217.547C274.876 217.102 274.521 216.727 274.09 216.458ZM251.5 228.589V209.411L266.841 219L251.5 228.589Z" fill="#FFDE00"/>
</svg>
