<svg width="306" height="581" viewBox="0 0 306 581" fill="none" xmlns="http://www.w3.org/2000/svg">
<rect width="46" height="23" transform="matrix(-0.999314 -0.0370444 -0.0370444 0.999314 163.217 254.777)" fill="#393737"/>
<path d="M143.501 260.187L149.879 266.317L150.237 272.306L162.493 274.313L163.217 254.777L138.218 253.85L122.62 254.424L143.501 260.187Z" fill="#1D1D1D"/>
<rect width="63" height="13" rx="4" transform="matrix(-0.996979 -0.0776684 -0.0776684 0.996979 172.318 246.32)" fill="#393737"/>
<path d="M166.351 80.18C166.806 74.2174 162.854 69.0545 157.524 68.6484L138.223 67.1775C132.893 66.7713 128.204 71.2757 127.75 77.2382V77.2382C127.295 83.2008 131.248 88.3637 136.577 88.7698L155.878 90.2407C161.208 90.6469 165.897 86.1425 166.351 80.18V80.18Z" fill="#4F4F4F"/>
<path d="M158.758 52.4551L139.457 50.9842L137.4 77.9746L156.701 79.4455L158.758 52.4551Z" fill="#4F4F4F"/>
<path d="M148.772 54.1622C151.866 54.3979 155.004 54.0425 158.187 53.0959C161.309 52.0786 164.206 50.5486 166.877 48.506C169.548 46.4633 171.725 43.9536 173.408 40.9768C175.096 37.9343 176.085 34.5083 176.376 30.6986C176.646 27.1517 176.238 23.8174 175.152 20.6956C174.071 17.5082 172.436 14.6419 170.247 12.0967C168.058 9.55159 165.5 7.50683 162.573 5.96246C159.585 4.34739 156.347 3.40695 152.859 3.14114C148.121 2.78004 143.756 3.60352 139.763 5.61156C135.71 7.5489 132.384 10.3675 129.786 14.0673C127.187 17.7671 125.708 21.9816 125.347 26.7108C125.042 30.7175 125.526 34.3549 126.799 37.6231C128.012 40.8205 129.783 43.6312 132.114 46.055C134.379 48.4738 136.98 50.3897 139.917 51.8027C142.793 53.145 145.745 53.9315 148.772 54.1622ZM150.104 39.2999C148.524 39.1796 146.942 38.6626 145.357 37.749C143.771 36.8354 142.48 35.5478 141.481 33.8861C140.482 32.2245 140.076 30.1785 140.261 27.7482C140.421 25.6463 141.022 23.8423 142.063 22.3361C143.105 20.8299 144.481 19.7126 146.191 18.9841C147.84 18.1849 149.718 17.8655 151.824 18.026C153.798 18.1764 155.54 18.7716 157.05 19.8116C158.493 20.8465 159.646 22.2226 160.508 23.9399C161.309 25.5865 161.632 27.428 161.477 29.4641C161.297 31.8287 160.618 33.792 159.44 35.3538C158.201 36.845 156.729 37.922 155.023 38.5848C153.323 39.1819 151.683 39.4203 150.104 39.2999Z" fill="#FFDE00"/>
<path d="M216.401 80.5125L148.573 77.0571C148.573 77.0571 -13.8225 156.901 27.627 215.527C32.2045 222.002 34.9956 225.644 41.0602 230.752C46.0783 234.979 49.1116 237.323 55.1333 239.928C58.5945 241.425 64.3263 242.884 64.3263 242.884L208.295 254.808C208.295 254.808 219.745 255.422 226.762 253.703C236.353 251.354 241.499 248.157 249.094 241.848C255.361 236.642 258.967 233.265 262.672 226.009C265.51 220.452 267.267 210.707 267.267 210.707L274.425 146.164C274.425 146.164 275.543 130.921 272.962 121.708C269.4 108.997 264.884 101.679 254.729 93.2461C248.185 87.8112 243.707 85.3697 235.576 82.8715C228.364 80.6558 216.401 80.5125 216.401 80.5125Z" fill="#606060"/>
<path d="M232.156 137.595C234.428 107.782 214.667 81.9679 188.018 79.9371L72.2127 71.112C45.5639 69.0811 22.1189 91.6029 19.847 121.416L15.7333 175.396C13.4613 205.209 33.2227 231.024 59.8716 233.054L175.677 241.88C202.325 243.91 225.77 221.389 228.042 191.576L232.156 137.595Z" fill="#4F4F4F"/>
<path d="M217.269 141.89C219.087 118.04 203.278 97.388 181.958 95.7634L75.8039 87.6736C54.4847 86.049 35.7288 104.066 33.9112 127.917L30.6203 171.101C28.8027 194.951 44.6118 215.603 65.9309 217.228L172.085 225.317C193.405 226.942 212.161 208.925 213.978 185.074L217.269 141.89Z" fill="black"/>
<path d="M160.454 184.943C163.547 185.179 166.685 184.824 169.868 183.877C172.991 182.86 175.887 181.33 178.558 179.287C181.229 177.245 183.406 174.735 185.089 171.758C186.777 168.716 187.767 165.29 188.057 161.48C188.327 157.933 187.919 154.599 186.834 151.477C185.753 148.289 184.118 145.423 181.929 142.878C179.74 140.333 177.182 138.288 174.254 136.744C171.266 135.129 168.028 134.188 164.54 133.922C159.802 133.561 155.437 134.385 151.445 136.393C147.392 138.33 144.066 141.149 141.467 144.849C138.868 148.548 137.389 152.763 137.028 157.492C136.723 161.499 137.207 165.136 138.48 168.404C139.693 171.602 141.465 174.412 143.795 176.836C146.06 179.255 148.661 181.171 151.598 182.584C154.475 183.926 157.426 184.713 160.454 184.943ZM161.785 170.081C160.205 169.961 158.623 169.444 157.038 168.53C155.453 167.617 154.161 166.329 153.162 164.667C152.164 163.006 151.757 160.96 151.942 158.529C152.102 156.428 152.703 154.624 153.744 153.117C154.786 151.611 156.162 150.494 157.872 149.765C159.522 148.966 161.399 148.647 163.505 148.807C165.48 148.958 167.222 149.553 168.731 150.593C170.175 151.628 171.327 153.004 172.189 154.721C172.991 156.368 173.314 158.209 173.158 160.245C172.978 162.61 172.299 164.573 171.121 166.135C169.882 167.626 168.41 168.703 166.705 169.366C165.004 169.963 163.364 170.202 161.785 170.081Z" fill="#FF00A8"/>
<path d="M83.2503 179.061C86.3434 179.296 89.4816 178.941 92.6648 177.994C95.7872 176.977 98.6839 175.447 101.355 173.404C104.026 171.362 106.203 168.852 107.886 165.875C109.574 162.833 110.563 159.407 110.854 155.597C111.124 152.05 110.716 148.716 109.63 145.594C108.549 142.407 106.914 139.54 104.725 136.995C102.536 134.45 99.9782 132.405 97.051 130.861C94.063 129.246 90.825 128.305 87.3371 128.04C82.5987 127.678 78.2334 128.502 74.2412 130.51C70.1882 132.447 66.8624 135.266 64.2637 138.966C61.665 142.666 60.1854 146.88 59.825 151.609C59.5197 155.616 60.0037 159.253 61.2771 162.522C62.4896 165.719 64.2612 168.53 66.5919 170.953C68.8567 173.372 71.4577 175.288 74.3948 176.701C77.2712 178.043 80.2231 178.83 83.2503 179.061ZM84.5815 164.198C83.0021 164.078 81.4198 163.561 79.8346 162.647C78.2494 161.734 76.9574 160.446 75.9588 158.785C74.9601 157.123 74.5534 155.077 74.7386 152.647C74.8988 150.545 75.4996 148.741 76.5411 147.235C77.5826 145.728 78.9585 144.611 80.6688 143.883C82.3184 143.083 84.1961 142.764 86.302 142.924C88.2764 143.075 90.0182 143.67 91.5276 144.71C92.9712 145.745 94.1239 147.121 94.986 148.838C95.7872 150.485 96.1102 152.326 95.955 154.363C95.7748 156.727 95.0957 158.69 93.9176 160.252C92.6787 161.743 91.2065 162.82 89.5012 163.483C87.8009 164.08 86.161 164.319 84.5815 164.198Z" fill="#00CFF5"/>
<path d="M261.92 136.113C249.008 134.807 236.942 149.541 234.971 169.021C233.001 188.502 241.872 205.354 254.785 206.66C255.704 206.753 256.618 206.761 257.524 206.696L257.515 206.783L271.43 204.948L272.078 198.34C277.101 192.373 280.729 183.679 281.733 173.752C282.75 163.702 280.882 154.35 277.061 147.473L277.65 141.463L267.187 137.587C265.527 136.804 263.765 136.3 261.92 136.113Z" fill="#DE0192"/>
<ellipse cx="23.5" cy="32.5" rx="23.5" ry="32.5" transform="matrix(-0.994923 -0.10064 -0.10064 0.994923 296.766 142.838)" fill="#FF00A8"/>
<rect width="63" height="13" rx="4" transform="matrix(-1 0 0 1 171.283 271)" fill="#393737"/>
<rect width="23" height="99" transform="matrix(-1 0 0 1 195.283 438)" fill="#1D1D1D"/>
<rect width="23" height="99" transform="matrix(-1 0 0 1 87.2827 438)" fill="#1D1D1D"/>
<path d="M223.169 544C227.269 552.685 229.039 560.558 229.212 570.207L229.283 580.204C223.41 581.493 215.606 580.383 209.469 580.374L161.635 580.473C157.429 580.506 148.909 581.804 145.283 580.199C165.803 560.294 195.098 548.583 223.169 544Z" fill="#1D1D1D"/>
<path d="M186.456 522L191.19 522.517L193.807 522.282L198.816 523.354L202.725 524.412C210.432 528.456 217.006 533.488 221.567 541.05L223.283 543.937C195.212 548.503 165.917 560.17 145.397 580C143.334 577.263 144.719 569.039 144.973 565.545C146.526 558.402 148.428 551.79 151.947 545.329C158.308 533.653 165.431 527.384 178.231 523.557L185.263 522.202L186.456 522Z" fill="#393737"/>
<path d="M112.169 544C116.269 552.685 118.039 560.558 118.212 570.207L118.283 580.204C112.41 581.493 104.606 580.383 98.4686 580.374L50.6351 580.473C46.4293 580.506 37.9088 581.804 34.2827 580.199C54.8032 560.294 84.0979 548.583 112.169 544Z" fill="#1D1D1D"/>
<path d="M219.283 296C219.283 286.059 211.224 278 201.283 278H124.283C114.342 278 106.283 286.059 106.283 296V401C106.283 410.941 114.342 419 124.283 419H201.283C211.224 419 219.283 410.941 219.283 401V296Z" fill="#606060"/>
<path d="M75.4561 522L80.1903 522.517L82.8066 522.282L87.8158 523.354L91.7254 524.412C99.4317 528.456 106.006 533.488 110.567 541.05L112.283 543.937C84.2119 548.503 54.9172 560.17 34.3968 580C32.3342 577.263 33.7187 569.039 33.9734 565.545C35.5261 558.402 37.4284 551.79 40.9473 545.329C47.3083 533.653 54.4315 527.384 67.231 523.557L74.263 522.202L75.4561 522Z" fill="#393737"/>
<path d="M185.783 396C174.461 396 165.283 405.402 165.283 417C165.283 417.675 165.315 418.342 165.375 419H201.283C203.003 419 204.667 418.758 206.243 418.308C206.269 417.875 206.283 417.439 206.283 417C206.283 405.402 197.105 396 185.783 396Z" fill="#393737"/>
<path d="M192.283 409H75.7962C66.1238 409 58.2827 416.841 58.2827 426.514V426.514C58.2827 436.723 66.5594 445 76.7692 445H192.283V409Z" fill="#393737"/>
<path d="M196.177 407.005C197.689 408.999 199.783 412.959 199.783 412.959C199.783 412.959 195.525 411.373 193.546 410.974C191.536 410.569 190.3 410.601 188.283 410.974C186.559 411.293 185.597 411.642 184.072 412.463C182.175 413.484 181.419 414.491 179.862 415.936C178.098 417.573 177.348 418.702 175.651 420.401C173.858 422.197 172.937 423.303 170.914 424.866C169.547 425.923 168.882 426.753 167.23 427.347C165.682 427.903 163.02 427.843 163.02 427.843C163.02 427.843 148.591 428.632 139.335 428.835C129.061 429.062 123.294 429.048 113.02 428.835C103.353 428.636 97.8783 428.965 88.2827 427.843C83.3197 427.263 80.1552 427.907 75.6511 425.859L75.5558 425.815C73.8669 425.047 72.8495 424.585 71.4406 423.378C69.9193 422.075 68.2827 419.409 68.2827 419.409C68.2827 419.409 117.214 422.503 148.283 419.409C151.781 419.06 153.878 419.424 157.23 418.416C159.159 417.837 160.298 417.511 161.967 416.432C163.645 415.347 164.264 414.362 165.651 412.959C167.84 410.745 168.599 409.102 170.914 407.005C172.812 405.286 173.767 404.032 176.177 403.036C178.467 402.089 179.994 402.12 182.493 402.044C185.602 401.948 187.516 401.91 190.388 403.036C192.969 404.048 194.553 404.861 196.177 407.005Z" fill="black"/>
<ellipse cx="12" cy="18" rx="12" ry="18" transform="matrix(-1 0 0 1 204.283 409)" fill="#1D1D1D"/>
<ellipse cx="8" cy="12" rx="8" ry="12" transform="matrix(-1 0 0 1 200.283 415)" fill="#008198"/>
<path d="M27.5 418L45 319L74.5 323L45 423.5L27.5 418Z" fill="#393737"/>
<path d="M32.7028 417.531C36.0353 417.971 43.2655 418.292 45.6508 420.506C46.1952 422.606 48.5147 423.244 50.1285 424.68C55.8402 429.763 57.5956 436.407 58.1188 443.753C55.5339 443.39 52.6733 440.568 50.6109 439.008L51.0815 438.789C51.3045 435.879 48.7819 431.197 47.3062 428.707C44.3383 423.702 34.4735 422.059 29.1442 420.67C28.3673 420.467 27.8851 420.271 27.0767 420.5C25.1621 420.165 20.4036 419.936 19.0978 418.674L19.3789 415.281L32.7028 417.531Z" fill="#1E324E"/>
<path d="M58.1187 443.753C57.7159 447.018 54.5272 448.879 52.1115 450.916C49.5377 446.831 46.8734 443.006 41.8627 441.807C39.5074 441.243 37.072 441.25 34.9816 442.628C32.7529 444.097 31.7768 446.519 31.3408 449.057C30.195 455.735 32.9605 461.254 35.9107 467.001C31.199 468.778 27.4348 469.712 22.3866 468.76L24.7823 459.587C25.7684 454.983 26.1985 449.952 28.1379 445.617C29.6857 442.164 32.4494 439.16 36.0932 437.906C40.718 436.316 46.2656 436.885 50.6109 439.008C52.6733 440.568 55.5338 443.39 58.1187 443.753Z" fill="#162942"/>
<path d="M27.0767 420.499C27.885 420.27 28.3673 420.467 29.1442 420.669C34.4735 422.058 44.3383 423.701 47.3061 428.707C48.7819 431.197 51.3045 435.878 51.0815 438.789L50.6109 439.007C46.2656 436.884 40.7181 436.315 36.0933 437.906C32.4494 439.159 29.6857 442.163 28.1379 445.616C26.1985 449.952 25.7685 454.983 24.7823 459.587L22.3866 468.76C21.0243 467.766 19.5054 467.002 18.1704 465.961C15.2795 463.707 13.3143 460.511 11.6307 457.326C10.3941 453.044 9.75676 449.319 10.1673 444.848C10.8688 437.218 14.801 429.168 20.9511 424.483C22.7206 423.136 24.9988 422.337 26.6274 420.905L27.0767 420.499Z" fill="#008198"/>
<path d="M51.4995 283C43.9702 282.831 37.6528 291.165 37.4204 301.473C37.1882 311.781 41.9708 319.83 49.5005 320C49.6076 320.002 49.7147 320.002 49.8218 320.001L71.2827 327V285.5L53.7378 283.307C53.0118 283.122 52.264 283.017 51.4995 283Z" fill="#393737"/>
<path d="M71.2832 314.38V327L49.8223 320.001C49.7154 320.002 49.6079 320.002 49.501 320C43.5165 319.865 39.2699 314.752 37.8945 307.484L71.2832 314.38Z" fill="#1D1D1D"/>
<path d="M248.783 418L231.283 319L201.783 323L231.283 423.5L248.783 418Z" fill="#393737"/>
<path d="M190.885 285.041C183.356 285.211 177.459 294.557 177.715 305.917C177.971 317.277 184.283 326.348 191.812 326.178C192.348 326.166 192.875 326.106 193.393 326.004L193.393 326.054L201.277 324.004L201.178 320.151C203.645 316.356 205.113 311.091 204.983 305.302C204.85 299.442 203.108 294.191 200.417 290.503L200.326 286.999L194.021 285.513C193.01 285.181 191.96 285.017 190.885 285.041Z" fill="#1D1D1D"/>
<ellipse cx="13.6372" cy="18.7497" rx="13.6372" ry="18.7497" transform="matrix(-0.999746 0.0225223 0.0225223 0.999746 211.438 286.646)" fill="#393737"/>
<path d="M197.283 287L224.783 283L227.283 320L199.283 324.5L197.283 287Z" fill="#D9D9D9"/>
<path d="M197.283 287L224.783 283L227.283 320L199.283 324.5L197.283 287Z" fill="#393737"/>
<path d="M187.192 316.497C189.757 321.392 193.963 324.55 198.649 324.444C198.86 324.44 199.07 324.426 199.279 324.408L199.283 324.5L227.283 320L226.492 308.291L187.192 316.497Z" fill="#1D1D1D"/>
<path d="M211.595 302.087C211.827 312.395 219.253 320.17 226.783 320C234.312 319.83 239.095 311.781 238.862 301.473C238.63 291.165 232.312 282.83 224.783 283C217.253 283.17 211.363 291.779 211.595 302.087Z" fill="#1D1D1D"/>
<path d="M216.665 301.281C216.812 307.808 221.514 312.73 226.282 312.623C231.05 312.516 234.078 307.419 233.931 300.892C233.784 294.365 229.783 289.087 225.016 289.195C220.248 289.302 216.518 294.754 216.665 301.281Z" fill="#008198"/>
<path d="M243.58 417.532C240.247 417.972 233.017 418.293 230.632 420.507C230.088 422.607 227.768 423.245 226.154 424.681C220.443 429.764 218.687 436.408 218.164 443.754C220.749 443.391 223.609 440.569 225.672 439.009L225.201 438.79C224.978 435.88 227.501 431.198 228.977 428.708C231.944 423.703 241.809 422.06 247.139 420.671C247.915 420.468 248.398 420.272 249.206 420.501C251.121 420.166 255.879 419.937 257.185 418.675L256.904 415.282L243.58 417.532Z" fill="#1E324E"/>
<path d="M218.164 443.753C218.567 447.018 221.755 448.879 224.171 450.916C226.745 446.831 229.409 443.006 234.42 441.807C236.775 441.243 239.211 441.25 241.301 442.628C243.53 444.097 244.506 446.519 244.942 449.057C246.088 455.735 243.322 461.254 240.372 467.001C245.084 468.778 248.848 469.712 253.896 468.76L251.5 459.587C250.514 454.983 250.084 449.952 248.145 445.617C246.597 442.164 243.833 439.16 240.189 437.906C235.565 436.316 230.017 436.885 225.672 439.008C223.609 440.568 220.749 443.39 218.164 443.753Z" fill="#162942"/>
<path d="M249.206 420.499C248.398 420.27 247.915 420.467 247.139 420.669C241.809 422.058 231.944 423.701 228.977 428.707C227.501 431.197 224.978 435.878 225.201 438.789L225.672 439.007C230.017 436.884 235.565 436.315 240.189 437.906C243.833 439.159 246.597 442.163 248.145 445.616C250.084 449.952 250.514 454.983 251.5 459.587L253.896 468.76C255.258 467.766 256.777 467.002 258.112 465.961C261.003 463.707 262.968 460.511 264.652 457.326C265.889 453.044 266.526 449.319 266.115 444.848C265.414 437.218 261.482 429.168 255.332 424.483C253.562 423.136 251.284 422.337 249.655 420.905L249.206 420.499Z" fill="#008198"/>
<path d="M170.283 296C170.283 286.059 162.224 278 152.283 278H75.2827C65.3416 278 57.2827 286.059 57.2827 296V401C57.2827 410.941 65.3416 419 75.2827 419H152.283C162.224 419 170.283 410.941 170.283 401V296Z" fill="#4F4F4F"/>
<rect width="84" height="47" rx="6" transform="matrix(-1 0 0 1 155.283 296)" fill="#393737"/>
<rect width="84" height="47" rx="6" transform="matrix(-1 0 0 1 152.283 296)" fill="#606060"/>
<rect x="-1" y="1" width="78" height="41" rx="5" transform="matrix(-1 0 0 1 148.283 298)" stroke="#FFDE00" stroke-width="2"/>
</svg>
