<svg width="421" height="126" viewBox="0 0 421 126" fill="none" xmlns="http://www.w3.org/2000/svg">
<path d="M275.415 126C271.56 126 268.669 125.365 266.741 124.094C264.814 122.823 263.567 120.858 263 118.201V13.1719C263 10.9766 263.113 8.89684 263.34 6.9326C263.68 4.85282 264.701 3.17744 266.401 1.90647C268.102 0.635488 271.05 0 275.245 0C279.44 0 282.388 0.635488 284.088 1.90647C285.902 3.0619 286.98 4.62174 287.32 6.58598C287.773 8.55021 288 10.6878 288 12.9986V112.828C288 115.023 287.773 117.161 287.32 119.241C286.98 121.205 285.902 122.823 284.088 124.094C282.388 125.365 279.497 126 275.415 126Z" fill="white"/>
<path d="M408.415 126C404.56 126 401.669 125.365 399.741 124.094C397.814 122.823 396.567 120.858 396 118.201V13.1719C396 10.9766 396.113 8.89684 396.34 6.9326C396.68 4.85282 397.701 3.17744 399.401 1.90647C401.102 0.635488 404.05 0 408.245 0C412.44 0 415.388 0.635488 417.088 1.90647C418.902 3.0619 419.98 4.62174 420.32 6.58598C420.773 8.55021 421 10.6878 421 12.9986V112.828C421 115.023 420.773 117.161 420.32 119.241C419.98 121.205 418.902 122.823 417.088 124.094C415.388 125.365 412.497 126 408.415 126Z" fill="white"/>
<path d="M374.415 126C370.56 126 367.669 125.546 365.741 124.638C363.814 123.73 362.567 122.327 362 120.429V45.4085C362 43.8404 362.113 42.3549 362.34 40.9519C362.68 39.4663 363.701 38.2696 365.401 37.3618C367.102 36.4539 370.05 36 374.245 36C378.44 36 381.388 36.4539 383.088 37.3618C384.902 38.1871 385.98 39.3012 386.32 40.7043C386.773 42.1073 387 43.6341 387 45.2847V116.591C387 118.16 386.773 119.686 386.32 121.172C385.98 122.575 384.902 123.73 383.088 124.638C381.388 125.546 378.497 126 374.415 126Z" fill="white"/>
<path d="M144.261 126C138.807 126 133.352 124.958 127.897 122.873C122.559 120.672 117.685 117.602 113.275 113.664C108.865 109.726 105.383 105.035 102.83 99.5907C100.277 94.0309 99 87.8919 99 81.1738C99 74.9189 100.161 69.1274 102.482 63.7992C104.803 58.3552 108.052 53.5483 112.23 49.3784C116.408 45.2085 121.166 41.9653 126.505 39.6487C131.959 37.2162 137.762 36 143.913 36C152.269 36 159.812 38.027 166.544 42.0811C173.391 46.0193 178.845 51.4054 182.907 58.2394C186.969 65.0734 189 72.6602 189 81C189 88.0656 187.665 94.3784 184.996 99.9382C182.443 105.382 178.961 110.073 174.551 114.012C170.257 117.95 165.441 120.961 160.103 123.046C154.88 125.015 149.6 126 144.261 126ZM143.913 99.7645C146.698 99.7645 149.542 99.0695 152.443 97.6795C155.344 96.2896 157.781 94.2046 159.754 91.4247C161.727 88.6448 162.714 85.112 162.714 80.8263C162.714 77.1197 161.901 73.8765 160.277 71.0965C158.652 68.3166 156.389 66.1737 153.487 64.668C150.702 63.0463 147.453 62.2355 143.739 62.2355C140.257 62.2355 137.124 63.0463 134.338 64.668C131.669 66.2896 129.464 68.5483 127.723 71.444C126.099 74.2239 125.286 77.4093 125.286 81C125.286 85.1699 126.215 88.7027 128.072 91.5985C130.044 94.3784 132.482 96.4633 135.383 97.8533C138.284 99.1274 141.128 99.7645 143.913 99.7645Z" fill="#00CFF5"/>
<path d="M243.261 126C237.807 126 232.352 124.958 226.897 122.873C221.559 120.672 216.685 117.602 212.275 113.664C207.865 109.726 204.383 105.035 201.83 99.5907C199.277 94.0309 198 87.8919 198 81.1738C198 74.9189 199.161 69.1274 201.482 63.7992C203.803 58.3552 207.052 53.5483 211.23 49.3784C215.408 45.2085 220.166 41.9653 225.505 39.6487C230.959 37.2162 236.762 36 242.913 36C251.269 36 258.812 38.027 265.544 42.0811C272.391 46.0193 277.845 51.4054 281.907 58.2394C285.969 65.0734 288 72.6602 288 81C288 88.0656 286.665 94.3784 283.996 99.9382C281.443 105.382 277.961 110.073 273.551 114.012C269.257 117.95 264.441 120.961 259.103 123.046C253.88 125.015 248.6 126 243.261 126ZM242.913 99.7645C245.698 99.7645 248.542 99.0695 251.443 97.6795C254.344 96.2896 256.781 94.2046 258.754 91.4247C260.727 88.6448 261.714 85.112 261.714 80.8263C261.714 77.1197 260.901 73.8765 259.277 71.0965C257.652 68.3166 255.389 66.1737 252.487 64.668C249.702 63.0463 246.453 62.2355 242.739 62.2355C239.257 62.2355 236.124 63.0463 233.338 64.668C230.669 66.2896 228.464 68.5483 226.723 71.444C225.099 74.2239 224.286 77.4093 224.286 81C224.286 85.1699 225.215 88.7027 227.072 91.5985C229.044 94.3784 231.482 96.4633 234.383 97.8533C237.284 99.1274 240.128 99.7645 242.913 99.7645Z" fill="#FFDE00"/>
<path d="M342.261 126C336.807 126 331.352 124.958 325.897 122.873C320.559 120.672 315.685 117.602 311.275 113.664C306.865 109.726 303.383 105.035 300.83 99.5907C298.277 94.0309 297 87.8919 297 81.1738C297 74.9189 298.161 69.1274 300.482 63.7992C302.803 58.3552 306.052 53.5483 310.23 49.3784C314.408 45.2085 319.166 41.9653 324.505 39.6487C329.959 37.2162 335.762 36 341.913 36C350.269 36 357.812 38.027 364.544 42.0811C371.391 46.0193 376.845 51.4054 380.907 58.2394C384.969 65.0734 387 72.6602 387 81C387 88.0656 385.665 94.3784 382.996 99.9382C380.443 105.382 376.961 110.073 372.551 114.012C368.257 117.95 363.441 120.961 358.103 123.046C352.88 125.015 347.6 126 342.261 126ZM341.913 99.7645C344.698 99.7645 347.542 99.0695 350.443 97.6795C353.344 96.2896 355.781 94.2046 357.754 91.4247C359.727 88.6448 360.714 85.112 360.714 80.8263C360.714 77.1197 359.901 73.8765 358.277 71.0965C356.652 68.3166 354.389 66.1737 351.487 64.668C348.702 63.0463 345.453 62.2355 341.739 62.2355C338.257 62.2355 335.124 63.0463 332.338 64.668C329.669 66.2896 327.464 68.5483 325.723 71.444C324.099 74.2239 323.286 77.4093 323.286 81C323.286 85.1699 324.215 88.7027 326.072 91.5985C328.044 94.3784 330.482 96.4633 333.383 97.8533C336.284 99.1274 339.128 99.7645 341.913 99.7645Z" fill="#FF00A8"/>
<path d="M90 115.54C89.9998 122.513 85.6663 126 77 126C68.3336 126 64.0002 122.513 64 115.54V80C64 76.3096 62.9009 73.7141 61.2764 70.9463C59.6517 68.1785 57.3884 66.0442 54.4873 64.5449C51.7021 62.9303 48.4519 62.123 44.7383 62.123C41.257 62.1231 38.1239 62.9305 35.3389 64.5449C32.6697 66.1596 30.4644 68.4088 28.7236 71.292C27.0989 74.0599 26.0001 76.9248 26 80.5V115.54C25.9998 122.513 21.6663 126 13 126C4.3336 126 0.000184902 122.513 0 115.54V80.9805C0 74.7525 1.16039 68.985 3.48145 63.6797C5.8025 58.2591 9.05263 53.4732 13.2305 49.3213C17.4084 45.1693 22.1664 41.9395 27.5049 39.6328C32.9591 37.211 38.7616 36.0001 44.9121 36C53.2678 36 60.8119 38.0181 67.543 42.0547C74.3899 45.9759 79.8444 51.3392 83.9062 58.1436C87.9681 64.9481 89.9999 72.5028 90 80.8066C90 80.871 89.9992 80.9357 89.999 81L90 115.54Z" fill="white"/>
</svg>
