<svg width="342" height="223" viewBox="0 0 342 223" fill="none" xmlns="http://www.w3.org/2000/svg">
<path d="M336.892 208.906C336.892 213.947 332.79 218.047 327.75 218.047H14.0926C9.05209 218.047 4.95136 213.947 4.95136 208.906V196.277H137.467V201.159C137.467 205.728 141.184 209.444 145.752 209.444H196.091C200.66 209.444 204.375 205.728 204.375 201.159V196.277H336.892V208.906ZM199.425 196.277V201.159C199.425 202.997 197.929 204.493 196.091 204.493H145.752C143.914 204.493 142.419 202.997 142.419 201.159V196.277H199.425ZM39.0279 14.0965C39.0279 9.05545 43.1284 4.95336 48.1692 4.95336H293.675C298.715 4.95336 302.817 9.05545 302.817 14.0965V191.324H39.0279V14.0965ZM339.367 191.324H307.767V14.0965C307.767 6.32388 301.444 6.89489e-06 293.675 6.89489e-06H48.1692C40.3985 6.89489e-06 34.0763 6.32388 34.0763 14.0965V191.324H2.47556C1.10834 191.324 0 192.433 0 193.799V208.906C0 216.676 6.32191 223 14.0926 223H327.75C335.521 223 341.844 216.676 341.844 208.906V193.799C341.844 192.433 340.735 191.324 339.367 191.324Z" fill="white"/>
<path d="M58.1489 34.0508C56.8541 34.0508 55.5592 33.8033 54.2643 33.3084C52.997 32.786 51.8399 32.0573 50.793 31.1224C49.7461 30.1875 48.9196 29.0738 48.3135 27.7815C47.7074 26.4616 47.4043 25.0043 47.4043 23.4094C47.4043 21.9246 47.6798 20.5497 48.2308 19.2849C48.7818 17.9925 49.5532 16.8514 50.545 15.8615C51.5368 14.8716 52.6664 14.1017 53.9337 13.5517C55.2286 12.9743 56.6061 12.6855 58.0663 12.6855C60.0499 12.6855 61.8407 13.1667 63.4386 14.1291C65.064 15.0641 66.3589 16.3427 67.3232 17.965C68.2874 19.5873 68.7696 21.3884 68.7696 23.3682C68.7696 25.0455 68.4527 26.5441 67.8191 27.864C67.213 29.1563 66.3865 30.27 65.3395 31.2049C64.3202 32.1398 63.1768 32.8547 61.9095 33.3496C60.6698 33.8171 59.4162 34.0508 58.1489 34.0508ZM58.0663 27.8227C58.7275 27.8227 59.4025 27.6577 60.0912 27.3278C60.78 26.9978 61.3585 26.5029 61.8269 25.8429C62.2952 25.183 62.5294 24.3443 62.5294 23.3269C62.5294 22.447 62.3366 21.6771 61.9509 21.0172C61.5652 20.3572 61.0279 19.8486 60.3392 19.4911C59.678 19.1061 58.9066 18.9136 58.0249 18.9136C57.1984 18.9136 56.4546 19.1061 55.7934 19.4911C55.1597 19.876 54.6363 20.4122 54.223 21.0997C53.8373 21.7596 53.6444 22.5158 53.6444 23.3682C53.6444 24.3581 53.8648 25.1967 54.3056 25.8842C54.774 26.5441 55.3526 27.0391 56.0413 27.369C56.7301 27.6715 57.4051 27.8227 58.0663 27.8227Z" fill="#00CFF5"/>
<path d="M82.1846 34.0508C80.8897 34.0508 79.5948 33.8033 78.3 33.3084C77.0327 32.786 75.8755 32.0573 74.8286 31.1224C73.7817 30.1875 72.9552 29.0738 72.3491 27.7815C71.743 26.4616 71.4399 25.0043 71.4399 23.4094C71.4399 21.9246 71.7154 20.5497 72.2665 19.2849C72.8175 17.9925 73.5889 16.8514 74.5807 15.8615C75.5725 14.8716 76.7021 14.1017 77.9694 13.5517C79.2642 12.9743 80.6417 12.6855 82.1019 12.6855C84.0855 12.6855 85.8763 13.1667 87.4742 14.1291C89.0997 15.0641 90.3946 16.3427 91.3588 17.965C92.3231 19.5873 92.8052 21.3884 92.8052 23.3682C92.8052 25.0455 92.4884 26.5441 91.8547 27.864C91.2486 29.1563 90.4221 30.27 89.3752 31.2049C88.3558 32.1398 87.2125 32.8547 85.9452 33.3496C84.7054 33.8171 83.4519 34.0508 82.1846 34.0508ZM82.1019 27.8227C82.7631 27.8227 83.4381 27.6577 84.1269 27.3278C84.8156 26.9978 85.3942 26.5029 85.8625 25.8429C86.3309 25.183 86.5651 24.3443 86.5651 23.3269C86.5651 22.447 86.3722 21.6771 85.9865 21.0172C85.6008 20.3572 85.0636 19.8486 84.3748 19.4911C83.7136 19.1061 82.9422 18.9136 82.0606 18.9136C81.2341 18.9136 80.4902 19.1061 79.829 19.4911C79.1954 19.876 78.6719 20.4122 78.2586 21.0997C77.8729 21.7596 77.6801 22.5158 77.6801 23.3682C77.6801 24.3581 77.9005 25.1967 78.3413 25.8842C78.8096 26.5441 79.3882 27.0391 80.077 27.369C80.7657 27.6715 81.4407 27.8227 82.1019 27.8227Z" fill="#FFDE00"/>
<path d="M104.885 34.0508C103.59 34.0508 102.296 33.8033 101.001 33.3084C99.7333 32.786 98.5762 32.0573 97.5293 31.1224C96.4824 30.1875 95.6559 29.0738 95.0498 27.7815C94.4437 26.4616 94.1406 25.0043 94.1406 23.4094C94.1406 21.9246 94.4161 20.5497 94.9671 19.2849C95.5181 17.9925 96.2895 16.8514 97.2814 15.8615C98.2732 14.8716 99.4027 14.1017 100.67 13.5517C101.965 12.9743 103.342 12.6855 104.803 12.6855C106.786 12.6855 108.577 13.1667 110.175 14.1291C111.8 15.0641 113.095 16.3427 114.059 17.965C115.024 19.5873 115.506 21.3884 115.506 23.3682C115.506 25.0455 115.189 26.5441 114.555 27.864C113.949 29.1563 113.123 30.27 112.076 31.2049C111.057 32.1398 109.913 32.8547 108.646 33.3496C107.406 33.8171 106.153 34.0508 104.885 34.0508ZM104.803 27.8227C105.464 27.8227 106.139 27.6577 106.828 27.3278C107.516 26.9978 108.095 26.5029 108.563 25.8429C109.032 25.183 109.266 24.3443 109.266 23.3269C109.266 22.447 109.073 21.6771 108.687 21.0172C108.301 20.3572 107.764 19.8486 107.075 19.4911C106.414 19.1061 105.643 18.9136 104.761 18.9136C103.935 18.9136 103.191 19.1061 102.53 19.4911C101.896 19.876 101.373 20.4122 100.959 21.0997C100.574 21.7596 100.381 22.5158 100.381 23.3682C100.381 24.3581 100.601 25.1967 101.042 25.8842C101.51 26.5441 102.089 27.0391 102.778 27.369C103.466 27.6715 104.141 27.8227 104.803 27.8227Z" fill="#FF00A8"/>
<path d="M283.819 34.0508C282.524 34.0508 281.23 33.8033 279.935 33.3084C278.667 32.7859 277.51 32.0573 276.463 31.1224C275.416 30.1875 274.59 29.0738 273.984 27.7815C273.378 26.4616 273.075 25.0043 273.075 23.4094C273.075 21.9246 273.35 20.5497 273.901 19.2849C274.452 17.9925 275.224 16.8514 276.215 15.8615C277.207 14.8716 278.337 14.1017 279.604 13.5517C280.899 12.9743 282.277 12.6855 283.737 12.6855C285.72 12.6855 287.511 13.1667 289.109 14.1291C290.734 15.0641 292.029 16.3427 292.994 17.965C293.958 19.5873 294.44 21.3884 294.44 23.3682C294.44 25.0455 294.123 26.5441 293.489 27.864C292.883 29.1563 292.057 30.27 291.01 31.2049C289.991 32.1398 288.847 32.8547 287.58 33.3496C286.34 33.8171 285.087 34.0508 283.819 34.0508ZM283.737 27.8227C284.398 27.8227 285.073 27.6577 285.762 27.3278C286.45 26.9978 287.029 26.5029 287.497 25.8429C287.966 25.183 288.2 24.3443 288.2 23.3269C288.2 22.447 288.007 21.6771 287.621 21.0172C287.236 20.3572 286.698 19.8486 286.01 19.4911C285.348 19.1061 284.577 18.9136 283.695 18.9136C282.869 18.9136 282.125 19.1061 281.464 19.4911C280.83 19.876 280.307 20.4122 279.893 21.0997C279.508 21.7596 279.315 22.5158 279.315 23.3682C279.315 24.3581 279.535 25.1967 279.976 25.8842C280.444 26.5441 281.023 27.039 281.712 27.369C282.4 27.6715 283.075 27.8227 283.737 27.8227Z" fill="#8A38F5"/>
<path d="M55.4043 47.4014H226.351C229.664 47.4015 232.351 50.0877 232.351 53.4014V75.458C232.351 78.7717 229.664 81.4579 226.351 81.458H55.4043C52.0906 81.458 49.4043 78.7717 49.4043 75.458V53.4014C49.4043 50.0877 52.0906 47.4014 55.4043 47.4014Z" stroke="#364153" stroke-width="4"/>
<path d="M55.4043 96.1406H95.4883C98.8019 96.1407 101.488 98.827 101.488 102.141V124.197C101.488 127.511 98.8019 130.197 95.4883 130.197H55.4043C52.0906 130.197 49.4043 127.511 49.4043 124.197V102.141C49.4043 98.8269 52.0906 96.1406 55.4043 96.1406Z" stroke="#364153" stroke-width="4"/>
<path d="M120.835 96.1406H160.919C164.233 96.1407 166.919 98.827 166.919 102.141V124.197C166.919 127.511 164.233 130.197 160.919 130.197H120.835C117.522 130.197 114.835 127.511 114.835 124.197V102.141C114.835 98.8269 117.522 96.1406 120.835 96.1406Z" stroke="#364153" stroke-width="4"/>
<path d="M186.267 96.1406H226.351C229.664 96.1407 232.351 98.827 232.351 102.141V124.197C232.351 127.511 229.664 130.197 226.351 130.197H186.267C182.953 130.197 180.267 127.511 180.267 124.197V102.141C180.267 98.8269 182.953 96.1406 186.267 96.1406Z" stroke="#364153" stroke-width="4"/>
<path d="M241.695 51.4103C241.695 48.0917 244.385 45.4014 247.704 45.4014H288.431C291.75 45.4014 294.44 48.0917 294.44 51.4103V51.4103C294.44 54.729 291.75 57.4193 288.431 57.4193H247.704C244.385 57.4193 241.695 54.729 241.695 51.4103V51.4103Z" fill="#00CFF5"/>
<path d="M249.695 62.0898H286.44C289.754 62.0898 292.44 64.7761 292.44 68.0898V75.458C292.44 78.7717 289.754 81.458 286.44 81.458H249.695C246.381 81.458 243.695 78.7717 243.695 75.458V68.0898C243.695 64.7761 246.381 62.0898 249.695 62.0898Z" stroke="#364153" stroke-width="4"/>
<path d="M249.695 88.7969H286.44C289.754 88.7969 292.44 91.4832 292.44 94.7969V102.165C292.44 105.479 289.754 108.165 286.44 108.165H249.695C246.381 108.165 243.695 105.479 243.695 102.165V94.7969C243.695 91.4832 246.381 88.7969 249.695 88.7969Z" stroke="#364153" stroke-width="4"/>
<path d="M249.695 115.503H286.44C289.754 115.503 292.44 118.189 292.44 121.503V172.938C292.44 176.251 289.754 178.938 286.44 178.938H249.695C246.381 178.937 243.695 176.251 243.695 172.938V121.503L243.703 121.194C243.863 118.024 246.485 115.503 249.695 115.503Z" stroke="#364153" stroke-width="4"/>
<path d="M55.4043 144.88H95.4883C98.8019 144.88 101.488 147.566 101.488 150.88V172.937C101.488 176.25 98.8019 178.936 95.4883 178.937H55.4043C52.0906 178.937 49.4043 176.25 49.4043 172.937V150.88C49.4043 147.566 52.0906 144.88 55.4043 144.88Z" stroke="#364153" stroke-width="4"/>
<path d="M120.835 144.88H160.919C164.233 144.88 166.919 147.566 166.919 150.88V172.937C166.919 176.25 164.233 178.936 160.919 178.937H120.835C117.522 178.937 114.835 176.25 114.835 172.937V150.88C114.835 147.566 117.522 144.88 120.835 144.88Z" stroke="#364153" stroke-width="4"/>
<path d="M186.267 144.88H226.351C229.664 144.88 232.351 147.566 232.351 150.88V172.937C232.351 176.25 229.664 178.936 226.351 178.937H186.267C182.953 178.937 180.267 176.25 180.267 172.937V150.88C180.267 147.566 182.953 144.88 186.267 144.88Z" stroke="#364153" stroke-width="4"/>
<path d="M52.7456 56.0841C52.7456 53.875 54.5365 52.0781 56.7456 52.0781H132.204C134.413 52.0781 136.204 53.875 136.204 56.0841V56.0841C136.204 58.2933 134.413 60.0901 132.204 60.0901H56.7456C54.5365 60.0901 52.7456 58.2933 52.7456 56.0841V56.0841Z" fill="#364153"/>
<path d="M220.329 56.0841C220.329 53.875 222.126 52.0781 224.335 52.0781V52.0781C226.544 52.0781 228.341 53.875 228.341 56.0841V56.0841C228.341 58.2933 226.544 60.0901 224.335 60.0901V60.0901C222.126 60.0901 220.329 58.2933 220.329 56.0841V56.0841Z" fill="#364153"/>
<path d="M52.7456 66.4325C52.7456 65.1419 53.7918 64.0957 55.0824 64.0957H226.005C227.295 64.0957 228.341 65.1419 228.341 66.4325V66.4325C228.341 67.7231 227.295 68.7694 226.005 68.7694H55.0824C53.7918 68.7694 52.7456 67.7231 52.7456 66.4325V66.4325Z" fill="#364153"/>
<path d="M52.7456 75.1122C52.7456 73.8216 53.7918 72.7754 55.0824 72.7754H226.005C227.295 72.7754 228.341 73.8216 228.341 75.1122V75.1122C228.341 76.4028 227.295 77.449 226.005 77.449H55.0824C53.7918 77.449 52.7456 76.4028 52.7456 75.1122V75.1122Z" fill="#364153"/>
</svg>
